<?xml version="1.0" encoding="UTF-8"?>
<svg width="243px" height="55px" viewBox="0 0 243 55" version="1.1" xmlns="http://www.w3.org/2000/svg" xmlns:xlink="http://www.w3.org/1999/xlink">
    <!-- Generator: Sketch 62 (91390) - https://sketch.com -->
    <title>为什么选31图标</title>
    <desc>Created with Sketch.</desc>
    <defs>
        <path d="M15.1983806,0.198380567 C23.5317139,0.198380567 30.1910384,6.86587313 30.1983806,15.1983806 C30.1983806,23.530888 23.5317139,30.1983806 15.1983806,30.1983806 C6.86504723,30.1983806 0.198380567,23.530888 0.198380567,15.1983806 C0.198380567,6.86587313 6.86504723,0.198380567 15.1983806,0.198380567 Z M21.0928482,7.34193197 C20.6318004,7.10191004 19.6952971,7.10191004 19.2270454,7.82197583 L19.2270454,7.82197583 L13.1541815,17.1903317 L10.5823993,14.5500905 C10.1213515,14.0700466 9.18484821,14.0700466 8.71659654,14.5500905 L8.71659654,14.5500905 L7.54956932,15.7502001 C7.08131765,16.230244 7.08131765,17.1903317 7.54956932,17.6703755 L7.54956932,17.6703755 L12.2176782,22.4783148 C12.455406,22.9583586 13.1541815,23.1983806 13.6224332,23.1983806 C14.0906849,23.1983806 14.5589365,22.7183367 15.0271882,22.2382929 L15.0271882,22.2382929 L22.9730588,10.2221951 C23.2035827,9.98217318 23.2035827,9.50212932 23.1963788,9.26210739 C22.9658549,8.78206354 22.7281271,8.54204161 22.4976032,8.30201968 L22.4976032,8.30201968 Z" id="path-1"></path>
        <path d="M41.8189474,30.5 C47.1797913,30.5 51.525614,34.8269004 51.525614,40.1644025 C51.525614,45.5019046 47.1797913,49.828805 41.8189474,49.828805 C36.4581034,49.828805 32.1122807,45.5019046 32.1122807,40.1644025 C32.1122807,34.8269004 36.4581034,30.5 41.8189474,30.5 Z M9.70666667,23.7059914 C15.0675106,23.7059914 19.4133333,28.0328918 19.4133333,33.3703939 C19.4133333,38.707896 15.0675106,43.0347964 9.70666667,43.0347964 C4.3458227,43.0347964 -1.38733469e-12,38.707896 -1.38733469e-12,33.3703939 C-1.38733469e-12,28.0328918 4.3458227,23.7059914 9.70666667,23.7059914 Z M29.2224561,-7.95807864e-13 C34.5833001,-7.95807864e-13 38.9291228,4.32690039 38.9291228,9.66440252 C38.9291228,15.0019046 34.5833001,19.328805 29.2224561,19.328805 C23.8616122,19.328805 19.5157895,15.0019046 19.5157895,9.66440252 C19.5157895,4.32690039 23.8616122,-7.95807864e-13 29.2224561,-7.95807864e-13 Z" id="path-3"></path>
        <path d="M18.2369718,0 C8.16501711,0 0,8.16514799 0,18.2371027 C0,28.3090573 8.16501711,36.4738127 18.2369718,36.4738127 C28.3087956,36.4738127 36.4739435,28.3090573 36.4739435,18.2371027 C36.4739435,8.16514799 28.3087956,0 18.2369718,0 Z" id="path-5"></path>
    </defs>
    <g id="页面-1" stroke="none" stroke-width="1" fill="none" fill-rule="evenodd">
        <g id="首页" transform="translate(-945.000000, -7234.000000)">
            <g id="为什么选31图标" transform="translate(936.000000, 7229.000000)">
                <g id="客户信赖_export" transform="translate(192.000000, 0.000000)">
                    <g id="客户信赖">
                        <g transform="translate(4.000000, 5.000000)">
                            <g id="编组">
                                <path d="M23.5383498,38.2490499 C23.5383498,35.2983036 24.3375102,32.7348427 25.7329674,30.3742455 C25.7329674,29.9808127 25.7329674,29.3906634 26.1325476,28.8005141 C27.7247212,26.6366335 28.7205981,24.269889 28.7205981,23.4830233 C28.7205981,23.4830233 31.1119321,21.515859 31.3086486,18.7556817 C31.505365,15.8049353 30.7123519,15.8049353 30.7123519,15.8049353 C31.7082288,12.6574725 32.107809,0.842192196 24.5342267,2.4159236 C23.3416333,-0.147537319 15.3684707,-2.11470157 11.5816795,4.57980428 C9.78664216,7.9301309 8.99362907,12.2578923 10.3829388,16.0016517 C10.3829388,16.1983681 9.78664216,15.8049353 9.78664216,17.3786667 C9.58992573,18.9523981 10.3829388,21.3191426 11.1820993,22.4994411 C11.5816795,22.6961576 12.1779762,23.0895904 12.5775564,23.2863068 C12.5775564,23.2863068 12.9771367,26.2370532 15.3684707,28.9972306 C15.9647674,31.1611112 13.7762972,32.3475572 13.7762972,32.3475572 C6.59614764,33.7184248 0.0184421649,37.6589007 0.0184421649,41.986662 L0.0184421649,45.3308413 C0.0184421649,50.0581829 10.9792355,51.041765 20.7474355,51.041765 C23.7350662,51.041765 26.7288443,50.8450486 29.5197586,50.2548993 C25.7329674,47.3041529 23.5383498,43.173108 23.5383498,38.2490499 Z" id="形状" fill="#007CFF"></path>
                                <g id="蒙版" transform="translate(25.801619, 22.801619)">
                                    <mask id="mask-2" fill="white">
                                        <use xlink:href="#path-1"></use>
                                    </mask>
                                    <use fill="#9CCAFF" fill-rule="nonzero" opacity="0.738653274" xlink:href="#path-1"></use>
                                </g>
                            </g>
                        </g>
                    </g>
                </g>
                <g id="安全可靠_export" transform="translate(128.000000, 0.000000)">
                    <g id="安全可靠">
                        <g transform="translate(3.000000, 5.000000)">
                            <path d="M45.577575,25.2206207 C52.6336529,26.4426254 58,32.594624 58,40 C58,48.2842712 51.2842712,55 43,55 C37.0429224,55 31.8969071,51.5274298 29.4757988,46.4961341 L34.5147988,42.8406207 L38.6198868,46.9794984 L39.6829377,48.0425492 C40.2397738,48.5487639 41.1003388,48.5487639 41.6065535,48.0425492 L41.6065535,48.0425492 L53.8063275,35.8933967 C54.3125422,35.3365605 54.3125422,34.4759956 53.8063275,33.9697809 L53.8063275,33.9697809 L52.7432767,32.90673 C52.1864405,32.4005153 51.3258755,32.4005153 50.8196608,32.90673 L50.8196608,32.90673 L40.6953671,43.0310238 L37.9231068,40.2593309 C42.3067152,36.4411724 45.0438416,31.0909679 45.5685916,25.3283619 L45.577575,25.2206207 Z" id="形状结合" fill="#007CFF"></path>
                            <g id="编组">
                                <path d="M41.8993912,6.76233471 L23.3166374,0.817335093 C22.5518248,0.571246118 21.7283516,0.571246118 20.9635391,0.817335093 L2.39423159,6.76233471 C1.34380919,7.0988442 0.632071725,8.07049637 0.632768873,9.16705367 L0.632768873,22.2326933 C0.635400444,29.4222543 4.08625714,36.1802168 9.92414627,40.4284001 L20.6811672,48.2303771 C21.5812221,48.8874261 22.8065245,48.8874261 23.7065794,48.2303771 L34.4636004,40.4284001 C40.2659629,36.1603472 43.6802425,29.4055878 43.6609355,22.2326933 L43.6609355,9.16705367 C43.661551,8.07049637 42.9498136,7.0988442 41.8993912,6.76233471 L41.8993912,6.76233471 Z" id="蒙版" fill="#9CCAFF" fill-rule="nonzero"></path>
                                <path d="M29.7977425,21.1505698 L27.3774128,23.488491 C27.099572,23.7596997 26.973861,24.1493884 27.0412559,24.5305359 L27.6194458,27.8437042 C27.6982148,28.2864879 27.5158863,28.7351278 27.1497565,28.9994283 C26.7836266,29.2637287 26.2978331,29.2973902 25.8983224,29.0861423 L22.8191252,27.5364346 C22.4734852,27.3581945 22.0621705,27.3581945 21.7165305,27.5364346 L18.7045647,29.0861423 C18.305054,29.2973902 17.8192605,29.2637287 17.4531306,28.9994283 C17.0870008,28.7351278 16.9046723,28.2864879 16.9834413,27.8437042 L17.5616312,24.5305359 C17.6290262,24.1493884 17.5033151,23.7596997 17.2254743,23.488491 L14.7513594,21.1505698 C14.4212321,20.8386941 14.3006157,20.3662229 14.4412224,19.9357195 C14.5818291,19.5052161 14.9586876,19.193136 15.410227,19.1332777 L18.7852423,18.6656935 C19.1730675,18.6112958 19.5095558,18.3717844 19.6861428,18.0244351 L21.1921258,15.0185364 C21.3953914,14.6172457 21.8089447,14.3640437 22.2611047,14.3640437 C22.7132648,14.3640437 23.1268181,14.6172457 23.3300837,15.0185364 L24.8360666,18.0244351 C25.0108284,18.3733335 25.3482527,18.6135112 25.7369671,18.6656935 L29.0850899,19.1466373 C29.5307578,19.2104103 29.9013743,19.5199649 30.0411904,19.9452128 C30.1810065,20.3704607 30.0657891,20.8376974 29.7439575,21.1505698 L29.7977425,21.1505698 Z" id="路径" fill="#FFFFFF"></path>
                            </g>
                        </g>
                    </g>
                </g>
                <g id="一站能力_export" transform="translate(64.000000, 0.000000)">
                    <g id="一站能力">
                        <g transform="translate(5.000000, 6.500000)">
                            <path d="M30.2189648,45.194258 L31.8759461,50.1291573 C24.1219127,52.4242493 15.75001,50.0945904 10.3259646,44.1815633 C12.4414994,44.1597419 14.3943844,43.4668031 15.97969,42.3074604 C19.968931,45.4725341 25.2642288,46.5620316 30.2189648,45.194258 Z M41.9365811,14.2676793 C45.8222285,18.2923491 47.9942313,23.6508444 48,29.2265929 C48,29.8053907 47.9037784,30.3581269 47.8551451,30.923907 C46.2958041,29.863389 44.4074929,29.2431151 42.3732057,29.2431151 C42.0996361,29.2431151 41.8287064,29.2543326 41.5608581,29.2763293 C41.8753963,29.2433403 42.1954069,29.2265929 42.5193562,29.2265929 C42.5924315,29.2265929 42.661853,29.2465502 42.7349282,29.2483645 L42.7349282,29.2265929 C42.7203267,25.3034606 41.2905287,21.5154192 38.7048282,18.5494302 L41.9365811,14.2676793 Z M18.0789065,9.00109925 C18.0525914,9.29040016 18.0391475,9.58338573 18.0391475,9.87948757 C18.0391475,11.4529615 18.4187793,12.9384378 19.0921003,14.2506234 C15.4634349,15.9180673 12.5457796,18.8307893 10.8887342,22.4701351 L6,20.517947 C8.33280759,15.2582367 12.6548296,11.1356084 18.0132841,9.02619275 Z" id="形状结合" fill="#007CFF"></path>
                            <g id="路径">
                                <mask id="mask-4" fill="white">
                                    <use xlink:href="#path-3"></use>
                                </mask>
                                <use id="蒙版" fill="#9CCAFF" fill-rule="nonzero" xlink:href="#path-3"></use>
                            </g>
                        </g>
                    </g>
                </g>
                <g id="专业公司">
                    <g id="编组">
                        <g transform="translate(9.000000, 5.000000)">
                            <g>
                                <rect id="矩形" fill="#007CFF" x="0" y="0.2" width="46" height="9.32571429" rx="0.833248239"></rect>
                                <g id="蒙版" transform="translate(4.662857, 16.097143)">
                                    <mask id="mask-6" fill="white">
                                        <use xlink:href="#path-5"></use>
                                    </mask>
                                    <use fill="#9CCAFF" fill-rule="nonzero" xlink:href="#path-5"></use>
                                    <path d="M27.6187728,17.8438195 L24.7464311,20.7782603 C24.4167017,21.1186677 24.2675133,21.6077854 24.3474947,22.0861824 L25.0336652,26.2447042 C25.1271448,26.800464 24.9107654,27.3635741 24.4762584,27.6953107 C24.0417515,28.0270473 23.4652329,28.0692975 22.9911111,27.8041498 L19.3368541,25.8590348 C18.9266636,25.6353169 18.4385333,25.6353169 18.0283428,25.8590348 L14.4538731,27.8041498 C13.9797513,28.0692975 13.4032327,28.0270473 12.9687258,27.6953107 C12.5342188,27.3635741 12.3178394,26.800464 12.411319,26.2447042 L13.0974895,22.0861824 C13.1774709,21.6077854 13.0282825,21.1186677 12.6985531,20.7782603 L9.76238149,17.8438195 C9.37060075,17.4523688 9.22745854,16.8593468 9.39432441,16.3190007 C9.56119028,15.7786546 10.0084296,15.3869474 10.5442968,15.3118163 L14.5496178,14.7249282 C15.0098718,14.6566509 15.4092015,14.3560282 15.6187672,13.9200529 L17.4060021,10.1472005 C17.6472289,9.64352067 18.1380159,9.32571429 18.6746198,9.32571429 C19.2112236,9.32571429 19.7020106,9.64352067 19.9432374,10.1472005 L21.7304722,13.9200529 C21.9378718,14.3579726 22.3383123,14.6594315 22.7996216,14.7249282 L26.7730278,15.3285845 C27.301927,15.4086292 27.7417585,15.7971665 27.9076862,16.3309162 C28.0736138,16.8646659 27.9368788,17.4511178 27.554943,17.8438195 L27.6187728,17.8438195 Z" id="路径" fill="#FFFFFF" mask="url(#mask-6)"></path>
                                </g>
                                <path d="M43.7689042,11.2 C44.0004132,11.2 44.2247504,11.2803258 44.4036436,11.4272737 C44.8304085,11.7778306 44.8921873,12.4079745 44.5416304,12.8347394 L44.5416304,12.8347394 L37.8701885,20.9549356 C34.2057928,16.8120858 28.8501006,14.2 22.8844521,14.2 C16.9187261,14.2 11.56304,16.8120858 7.89866646,20.9549356 L1.22727375,12.8347394 C1.08032581,12.6558463 1,12.4315091 1,12.2 C1,11.6477153 1.44771525,11.2 2,11.2 L2,11.2 Z" id="形状结合" fill="#007CFF"></path>
                            </g>
                        </g>
                    </g>
                </g>
            </g>
        </g>
    </g>
</svg>