<?xml version="1.0" encoding="UTF-8"?>
<svg width="20px" height="16px" viewBox="0 0 20 16" version="1.1" xmlns="http://www.w3.org/2000/svg" xmlns:xlink="http://www.w3.org/1999/xlink">
    <!-- Generator: Sketch 62 (91390) - https://sketch.com -->
    <title>“</title>
    <desc>Created with Sketch.</desc>
    <g id="页面-1" stroke="none" stroke-width="1" fill="none" fill-rule="evenodd">
        <g id="首页" transform="translate(-389.000000, -3259.000000)" fill="#EBF3FF" fill-rule="nonzero">
            <g id="编组-18" transform="translate(361.000000, 3162.000000)">
                <path d="M36.7759749,113 L36.7759749,105.078431 L32.5796467,105.078431 C32.6468955,104.124183 32.9764149,103.297386 33.5682047,102.598039 C34.1599946,101.898693 35.2292513,101.196078 36.7759749,100.490196 L36.7759749,100.490196 L34.8795573,97 C32.3644503,98.0718954 30.5890807,99.3071895 29.5534484,100.705882 C28.5178161,102.104575 28,104.013072 28,106.431373 L28,106.431373 L28,113 L36.7759749,113 Z M47.0045249,113 L47.0045249,105.078431 L42.8081967,105.078431 C42.8754455,104.124183 43.2049649,103.297386 43.7967548,102.598039 C44.3885446,101.898693 45.4578013,101.196078 47.0045249,100.490196 L47.0045249,100.490196 L45.1081073,97 C42.5930004,98.0718954 40.8176307,99.3071895 39.7819984,100.705882 C38.7463662,102.104575 38.22855,104.013072 38.22855,106.431373 L38.22855,106.431373 L38.22855,113 L47.0045249,113 Z" id="“"></path>
            </g>
        </g>
    </g>
</svg>