<?xml version="1.0" encoding="UTF-8"?>
<svg width="20px" height="16px" viewBox="0 0 20 16" version="1.1" xmlns="http://www.w3.org/2000/svg" xmlns:xlink="http://www.w3.org/1999/xlink">
    <!-- Generator: Sketch 62 (91390) - https://sketch.com -->
    <title>“备份 2</title>
    <desc>Created with Sketch.</desc>
    <g id="页面-1" stroke="none" stroke-width="1" fill="none" fill-rule="evenodd">
        <g id="首页" transform="translate(-694.000000, -3375.000000)" fill="#EBF3FF" fill-rule="nonzero">
            <g id="编组-18" transform="translate(361.000000, 3162.000000)">
                <path d="M341.775975,229 L341.775975,221.078431 L337.579647,221.078431 C337.646896,220.124183 337.976415,219.297386 338.568205,218.598039 C339.159995,217.898693 340.229251,217.196078 341.775975,216.490196 L341.775975,216.490196 L339.879557,213 C337.36445,214.071895 335.589081,215.30719 334.553448,216.705882 C333.517816,218.104575 333,220.013072 333,222.431373 L333,222.431373 L333,229 L341.775975,229 Z M352.004525,229 L352.004525,221.078431 L347.808197,221.078431 C347.875446,220.124183 348.204965,219.297386 348.796755,218.598039 C349.388545,217.898693 350.457801,217.196078 352.004525,216.490196 L352.004525,216.490196 L350.108107,213 C347.593,214.071895 345.817631,215.30719 344.781998,216.705882 C343.746366,218.104575 343.22855,220.013072 343.22855,222.431373 L343.22855,222.431373 L343.22855,229 L352.004525,229 Z" id="“备份-2" transform="translate(342.502262, 221.000000) scale(-1, -1) translate(-342.502262, -221.000000) "></path>
            </g>
        </g>
    </g>
</svg>