<?xml version="1.0" encoding="UTF-8"?>
<svg width="80px" height="80px" viewBox="0 0 80 80" version="1.1" xmlns="http://www.w3.org/2000/svg" xmlns:xlink="http://www.w3.org/1999/xlink">
    <!-- Generator: Sketch 62 (91390) - https://sketch.com -->
    <title>切换箭头</title>
    <desc>Created with Sketch.</desc>
    <g id="页面-1" stroke="none" stroke-width="1" fill="none" fill-rule="evenodd">
        <g id="首页" transform="translate(-315.000000, -6523.000000)" fill-rule="nonzero">
            <g id="切换箭头" transform="translate(315.000000, 6523.000000)">
                <g id="左" transform="translate(60.000000, 20.000000) scale(-1, 1) translate(-60.000000, -20.000000) translate(40.000000, 0.000000)">
                    <path d="M19.9300699,4.61852778e-14 C8.92218249,4.61852778e-14 4.61852778e-14,8.92218249 4.61852778e-14,19.9300699 C4.61852778e-14,30.9379574 8.92218249,39.8601399 19.9300699,39.8601399 C30.9379574,39.8601399 39.8601399,30.9379574 39.8601399,19.9300699 C39.8601399,8.92218249 30.9379574,4.61852778e-14 19.9300699,4.61852778e-14 Z" id="翻动悬停备份" fill="#007CFF"></path>
                    <polygon id="路径" fill="#FFFFFF" points="16.8691335 27.6806527 15.5011655 26.4473775 22.7302645 19.9300699 15.5011655 13.4127623 16.8691335 12.1794872 25.4662005 19.9300699"></polygon>
                </g>
                <g id="右" transform="translate(40.000000, 40.000000)">
                    <path d="M19.9300699,4.61852778e-14 C8.92218249,4.61852778e-14 4.61852778e-14,8.92218249 4.61852778e-14,19.9300699 C4.61852778e-14,30.9379574 8.92218249,39.8601399 19.9300699,39.8601399 C30.9379574,39.8601399 39.8601399,30.9379574 39.8601399,19.9300699 C39.8601399,8.92218249 30.9379574,4.61852778e-14 19.9300699,4.61852778e-14 Z" id="翻动悬停备份" fill="#007CFF"></path>
                    <polygon id="路径" fill="#FFFFFF" points="16.8691335 27.6806527 15.5011655 26.4473775 22.7302645 19.9300699 15.5011655 13.4127623 16.8691335 12.1794872 25.4662005 19.9300699"></polygon>
                </g>
                <g id="左-不">
                    <path d="M19.5652174,0 C8.75884734,0 0,8.75884734 0,19.5652174 C0,30.3715874 8.75884734,39.1304348 19.5652174,39.1304348 C30.3715874,39.1304348 39.1304348,30.3715874 39.1304348,19.5652174 C39.1304348,8.75884734 30.3715874,0 19.5652174,0 Z" id="形状备份" fill="#FAFAFA" transform="translate(19.565217, 19.565217) scale(-1, 1) translate(-19.565217, -19.565217) "></path>
                    <polygon id="路径" fill="#333333" transform="translate(17.934783, 19.565217) scale(-1, 1) translate(-17.934783, -19.565217) " points="14.3864034 27.173913 13.0434783 25.963215 20.1402368 19.5652174 13.0434783 13.1672198 14.3864034 11.9565217 22.826087 19.5652174"></polygon>
                </g>
                <g id="右-不" transform="translate(20.000000, 60.000000) scale(-1, 1) translate(-20.000000, -60.000000) translate(0.000000, 40.000000)">
                    <path d="M19.5652174,0 C8.75884734,0 0,8.75884734 0,19.5652174 C0,30.3715874 8.75884734,39.1304348 19.5652174,39.1304348 C30.3715874,39.1304348 39.1304348,30.3715874 39.1304348,19.5652174 C39.1304348,8.75884734 30.3715874,0 19.5652174,0 Z" id="形状备份" fill="#FAFAFA" transform="translate(19.565217, 19.565217) scale(-1, 1) translate(-19.565217, -19.565217) "></path>
                    <polygon id="路径" fill="#333333" transform="translate(17.934783, 19.565217) scale(-1, 1) translate(-17.934783, -19.565217) " points="14.3864034 27.173913 13.0434783 25.963215 20.1402368 19.5652174 13.0434783 13.1672198 14.3864034 11.9565217 22.826087 19.5652174"></polygon>
                </g>
            </g>
        </g>
    </g>
</svg>