<?xml version="1.0" encoding="UTF-8"?>
<svg width="82px" height="165px" viewBox="0 0 82 165" version="1.1" xmlns="http://www.w3.org/2000/svg" xmlns:xlink="http://www.w3.org/1999/xlink">
    <title>icon</title>
    <defs>
        <path d="M19.5167799,7.73692051 L16.0731223,7.73692051 L9.91207609,0 L7.0695625,0 L9.91207609,7.73692051 L4.10736413,7.73692051 L1.67966712,5.77319988 L0,5.77319988 L1.43077717,11.6060747 L9.91207609,11.6060747 L7.0695625,19.3429952 L9.91207609,19.3429952 L16.0731223,11.6060747 L20.8129117,11.6060747 C21.220928,11.6060747 21.7608696,11.6060747 21.7608696,10.6387861 C21.7608696,9.35369403 20.7789103,7.7383083 19.5167799,7.7383083 L19.5167799,7.73692051 Z" id="path-1"></path>
    </defs>
    <g id="页面-1" stroke="none" stroke-width="1" fill="none" fill-rule="evenodd">
        <g id="product">
            <g id="31轻会_export" transform="translate(1.000000, 1.000000)" fill-rule="nonzero">
                <g id="轻会_export">
                    <g id="轻会" transform="translate(0.000000, 0.500000)">
                        <path d="M13.3825098,11.555306 L10.9063728,11.555306 C9.97782145,11.555306 9.04927007,11.8648231 8.22389107,12.4838574 C7.2953397,13.206064 6.67630545,14.031443 6.57313307,15.2695115 C6.4699607,16.6107524 6.57313307,18.158338 6.4699607,19.6027513 C6.57313307,19.6027513 6.8826502,19.7059236 6.98582257,19.7059236 L7.91437395,19.9122684 C9.25561482,20.2217855 10.4936833,20.5313026 11.9380966,20.5313026 C12.866648,20.5313026 14.0015441,20.5313026 15.0332678,20.4281303 C15.8586468,20.3249579 16.6840258,20.0154408 17.5094048,19.7059236 C17.6125772,19.7059236 17.6125772,19.6027513 17.6125772,19.3964065 C17.7157496,18.158338 17.7157496,17.0234419 17.7157496,15.9917181 C17.7157496,14.9599944 17.4062325,14.1346154 16.8903706,13.4124088 C15.9618192,12.2775126 14.9300955,11.6584784 13.692027,11.6584784 L13.3825098,11.555306 L13.3825098,11.555306 Z M12.1444413,3.92055025 C10.2873386,3.92055025 8.73975295,5.46813588 8.73975295,7.32523863 C8.84292532,9.18234138 10.1841662,10.8330994 11.9380966,10.9362718 L12.3507861,10.9362718 C14.0015441,10.8330994 15.4459573,9.28551376 15.4459573,7.53158338 L15.4459573,7.32523863 C15.342785,5.46813588 13.7951993,3.92055025 12.1444413,3.92055025 L12.1444413,3.92055025 Z" id="形状" fill="#007CFF"></path>
                        <path d="M19.4119876,7.63475576 C21.2690904,7.63475576 22.6103313,8.56330713 23.3325379,10.2140651 C23.642055,10.8330994 23.7452274,11.555306 23.7452274,12.1743403 L23.7452274,12.1743403 L23.7447498,15.1142753 C23.7423615,15.197864 23.728032,15.2695115 23.642055,15.2695115 C22.816676,15.682201 21.8881246,15.9917181 20.9595733,16.1980629 L20.9595733,16.1980629 L20.5468838,16.3012353 C20.0310219,16.4044076 19.51516,16.4044076 18.9992981,16.50758 L18.9992981,16.50758 L18.9992981,15.4758563 C18.9992981,14.031443 18.5866086,13.1028916 17.7612296,12.0711679 C17.2453678,11.4521336 16.5231611,11.0394441 15.8009545,10.729927 C15.8009545,10.729927 15.5946098,10.6267546 15.4914374,10.6267546 C16.3168164,9.90454801 16.7295059,8.87282426 16.7295059,7.63475576 L16.7295059,7.63475576 L19.4119876,7.63475576 Z M18.1739191,-2.95148521e-14 C19.9278495,-2.95148521e-14 21.4754351,1.44441325 21.4754351,3.40468838 L21.4754351,3.40468838 L21.4754351,3.61103313 C21.4754351,5.46813588 19.9278495,7.0157215 18.1739191,7.0157215 C17.5548849,7.0157215 17.1421954,6.80937675 16.7295059,6.70620438 C16.6263335,5.15861875 15.9041269,4.02372263 14.7692308,3.40468838 C14.7692308,1.54758563 16.3168164,-2.95148521e-14 18.1739191,-2.95148521e-14 Z" id="形状结合" fill="#94C7FF"></path>
                        <path d="M7.42841101,7.63475576 C7.42841101,8.87282426 7.84110051,9.80137563 8.66647951,10.6267546 C8.35696238,10.8330994 8.25379001,10.8330994 7.94427288,10.9362718 L7.94427288,10.9362718 L7.73792813,11.0394441 C6.39668725,11.7616508 5.46813588,12.6902021 5.05544638,14.4441325 L5.05544638,14.4441325 L5.05544638,14.5473049 C4.952274,14.9599944 4.952274,15.2695115 4.952274,15.682201 L4.952274,15.682201 L4.952274,16.6107524 C4.5395845,16.6107524 3.92055025,16.50758 3.50786075,16.50758 C2.37296463,16.4044076 1.2380685,16.0948905 0.103172375,15.7853734 C-1.63971401e-15,15.5790286 -1.63971401e-15,15.5790286 -1.63971401e-15,15.4758563 L-1.63971401e-15,11.9679955 C-1.63971401e-15,10.2140651 1.2380685,8.56330713 2.8888265,7.94427288 C3.301516,7.73792813 3.81737788,7.63475576 4.43641213,7.63475576 L4.43641213,7.63475576 L7.42841101,7.63475576 Z M5.67448063,0.103172375 C7.42841101,0.103172375 8.97599663,1.650758 8.97599663,3.61103313 C8.15061763,4.23006738 7.53158338,5.26179113 7.42841101,6.49985963 C6.91254913,6.80937675 6.29351488,6.91254913 5.67448063,6.91254913 C3.81737788,6.91254913 2.26979225,5.3649635 2.26979225,3.50786075 C2.26979225,1.650758 3.81737788,0.103172375 5.67448063,0.103172375 Z" id="形状结合" fill="#94C7FF"></path>
                    </g>
                </g>
            </g>
            <g id="31大会易_export" transform="translate(0.000000, 27.000000)" fill-rule="nonzero">
                <g id="31大会易">
                    <g id="编组">
                        <g id="蒙版" transform="translate(6.817825, 0.000000)" fill="#007CFF">
                            <g id="path-1-link">
                                <path d="M4.35128582,0.800000011 C5.58819482,0.800000011 6.59090769,1.80271288 6.59090769,3.03962189 C6.59090769,3.80586013 6.2061133,4.48222482 5.61922158,4.88601892 C7.10001006,5.40663872 8.16155161,6.818703 8.16155161,8.47870359 L8.16155161,10.9800995 L0.570106018,10.9800995 L0.570106018,8.47870359 C0.570106018,6.8267886 1.62168293,5.41892686 3.09389115,4.89100801 C2.50122622,4.49057627 2.11166394,3.81059265 2.11166394,3.03962189 C2.11166394,1.80271288 3.11437681,0.800000011 4.35128582,0.800000011 Z M12.9316554,0.800000011 C14.1685644,0.800000011 15.1712772,1.80271288 15.1712772,3.03962189 C15.1712772,3.80586013 14.7864828,4.48222482 14.1995911,4.88601892 C15.6803796,5.40663872 16.7419211,6.818703 16.7419211,8.47870359 L16.7419211,10.9800995 L9.12138956,10.9800995 L9.12138956,8.47870359 C9.12138956,6.818703 10.1829311,5.40663872 11.6642084,4.88431659 C11.0768279,4.48222482 10.6920335,3.80586013 10.6920335,3.03962189 C10.6920335,1.80271288 11.6947463,0.800000011 12.9316554,0.800000011 Z" id="path-1"></path>
                            </g>
                        </g>
                        <path d="M10.5990048,14.4403985 C11.8359138,14.4403985 12.8386267,15.4431114 12.8386267,16.6800204 C12.8386267,17.4462586 12.4538323,18.1226233 11.8669406,18.5264174 C13.3477291,19.0470372 14.4092706,20.4591015 14.4092706,22.1191021 L14.4092706,24.605955 L6.81782502,24.605955 L6.81782502,22.1191021 C6.81782502,20.4671871 7.86940193,19.0593254 9.34161015,18.5314065 C8.74894522,18.1309748 8.35938294,17.4509911 8.35938294,16.6800204 C8.35938294,15.4431114 9.36209581,14.4403985 10.5990048,14.4403985 Z M19.1793743,14.4403985 C20.4162834,14.4403985 21.4189962,15.4431114 21.4189962,16.6800204 C21.4189962,17.4462586 21.0342018,18.1226233 20.4473101,18.5264174 C21.9280986,19.0470372 22.9896401,20.4591015 22.9896401,22.1191021 L22.9896401,24.605955 L15.3691086,24.605955 L15.3691086,22.1191021 C15.3691086,20.4591015 16.4306501,19.0470372 17.9119274,18.5247151 C17.3245469,18.1226233 16.9397525,17.4462586 16.9397525,16.6800204 C16.9397525,15.4431114 17.9424653,14.4403985 19.1793743,14.4403985 Z" id="形状结合" fill="#94C7FF"></path>
                        <path d="M23.684538,23.878805 L6.83582528,23.878805 C4.11685057,23.7355367 1.98739606,21.5414791 1.98739606,18.8832848 C1.98739606,16.2250904 4.11685057,14.0310328 6.83582528,13.8877645 L23.684538,13.8877645 C23.8781491,13.8839466 24.0622719,13.8051817 24.1963811,13.6688059 C24.3304903,13.5324302 24.4035942,13.349621 24.3996027,13.1606146 C24.4077246,12.9704903 24.3359886,12.7853693 24.2009976,12.6480968 C24.0660066,12.5108243 23.8794618,12.4332994 23.684538,12.4334641 L6.83582528,12.4334641 C3.24611965,12.4892692 0.380289136,15.3715456 0.430037077,18.8760133 C0.38022936,22.3829325 3.24374573,25.2693825 6.83582528,25.3331049 L23.684538,25.3331049 C24.0959123,25.3331049 24.4293971,25.0075488 24.4293971,24.605955 C24.4293971,24.2043611 24.0959123,23.878805 23.684538,23.878805 L23.684538,23.878805 Z" id="路径" fill="#94C7FF"></path>
                    </g>
                </g>
            </g>
            <g id="31线上会" transform="translate(2.000000, 57.000000)" fill-rule="nonzero">
                <g id="31线上会_export">
                    <g id="31线上会" transform="translate(0.500000, 0.500000)">
                        <path d="M18.7278892,5.52034198 L6.62097092,5.52034198 C5.41027911,5.52034198 4.41971304,6.51090802 4.41971304,7.72159983 L4.41971304,15.4260024 C4.41971304,16.6366942 5.41027908,17.6272602 6.62097092,17.6272602 L10.4731722,17.6272602 L9.92285771,19.2782036 L7.99675708,19.2782036 C7.55650549,19.2782036 7.17128538,19.6634237 7.17128538,20.1036753 C7.17128538,20.5439269 7.55650549,20.929147 7.99675708,20.929147 L17.352103,20.929147 C17.7923546,20.929147 18.1775747,20.5439269 18.1775747,20.1036753 C18.1775747,19.6634237 17.7923546,19.2782036 17.352103,19.2782036 L15.4260024,19.2782036 L14.8756879,17.6272602 L18.7278892,17.6272602 C19.938581,17.6272602 20.929147,16.6366942 20.929147,15.4260024 L20.929147,7.72159983 C20.929147,6.51090802 19.938581,5.52034198 18.7278892,5.52034198 Z" id="路径" fill="#94C7FF"></path>
                        <path d="M5.52034198,20.1036753 C5.52034198,19.7734866 5.57537342,19.4432979 5.68543632,19.1681407 C4.03449292,18.7829206 2.76876965,17.2420401 2.76876965,15.4260024 L2.76876965,7.72159983 C2.76876965,5.57537342 4.47474448,3.86939858 6.62097092,3.86939858 L11.0234866,3.86939858 L11.0234866,2.21845519 C11.0234866,1.00776337 10.0329206,0.0171973356 8.82222877,0.0171973356 L2.21845519,0.0171973356 C1.00776337,0.0171973356 0.0171973356,1.00776337 0.0171973356,2.21845519 L0.0171973356,18.7278892 C0.0171973356,19.938581 1.00776337,20.929147 2.21845519,20.929147 L5.68543632,20.929147 C5.57537342,20.6539898 5.52034198,20.3788325 5.52034198,20.1036753 Z" id="路径" fill="#007CFF"></path>
                    </g>
                </g>
            </g>
            <g id="融合会_export" transform="translate(1.000000, 84.000000)" fill-rule="nonzero">
                <g id="融合会">
                    <g id="编组">
                        <path d="M6.11616483,0.940744 C3.2903345,0.940744 0.991167625,3.23900775 0.991167625,6.0640855 C0.991167625,8.88901275 3.2903345,11.187427 6.11616483,11.187427 C8.94229621,11.187427 11.2413126,8.88901275 11.2413126,6.0640855 C11.2413126,3.23900775 8.94229625,0.940744 6.11616483,0.940744 Z" id="路径" fill="#94C7FF"></path>
                        <path d="M17.8835341,12.8130245 C15.0574028,12.8130245 12.7583864,15.1111378 12.7583864,17.9359145 C12.7583864,20.7606912 15.0575533,23.059256 17.8835341,23.059256 C20.709515,23.059256 23.0086818,20.7608418 23.0086818,17.9359145 C23.0086818,15.1109873 20.7096655,12.8130245 17.8835341,12.8130245 Z" id="路径" fill="#007CFF"></path>
                        <path d="M13.9328806,3.23991088 C14.1229852,3.35761617 14.343344,3.42158646 14.5668636,3.41270588 C15.9364295,3.35821825 17.2417241,3.91950096 18.1875811,4.98095592 C18.5739615,5.41444858 18.857538,5.88511929 19.0455353,6.40696617 C18.9157885,6.39191433 18.7870954,6.37716354 18.6584023,6.36271379 C18.1926987,6.31063446 17.95202,6.487945 17.8320569,6.64568817 C17.7137495,6.80132408 17.6080857,7.07496633 17.7768167,7.49491238 C18.1096126,8.32276296 18.4664915,9.1996825 18.9337002,10.3383533 C18.9895425,10.4745724 19.0673605,10.6064264 19.1588756,10.7197667 C19.3858572,11.0010854 19.7279853,11.1601832 20.0741773,11.1449809 C20.4084784,11.1303806 20.709515,10.9589403 20.9002217,10.6749123 C21.4100271,9.91509592 21.9398515,9.09748058 22.6177858,8.02338208 C22.837693,7.67523329 22.763337,7.39000113 22.6993668,7.25092221 C22.6331387,7.10672571 22.4564303,6.85520963 22.0175189,6.79048679 C21.9640042,6.78247133 21.9105677,6.77394156 21.857217,6.76489867 C21.7154288,6.74156833 21.569727,6.71748542 21.4118333,6.70679863 C20.9533546,4.55303242 19.762755,2.96401088 17.8717937,1.98308317 C16.7411003,1.39636288 15.5961077,1.13084863 14.4473521,1.18654038 C13.3666308,1.23922179 13.0129128,2.67004863 13.9328806,3.23991088 L13.9328806,3.23991088 Z" id="路径" fill="#94C7FF"></path>
                        <path d="M10.3874223,21.0657918 C10.2099613,20.9297233 9.99712842,20.8442289 9.77390979,20.8308328 C8.40569854,20.7486498 7.16301954,20.0601791 6.32764304,18.9096173 C5.98641808,18.4396992 5.751158,17.9432899 5.61614308,17.405187 C5.74378258,17.4331834 5.87021796,17.4605778 5.99695438,17.4878215 C6.45513204,17.5859595 6.71236779,17.433635 6.84738267,17.2885353 C6.98074188,17.1453925 7.11304746,16.8836411 6.98691313,16.4489443 C6.70122515,15.4663844 6.4120275,14.4848484 6.11932571,13.504355 C6.07683204,13.3621459 6.01418194,13.2267588 5.93328512,13.1023207 C5.73535358,12.7997789 5.41083612,12.6074165 5.06494512,12.5881502 C4.73079454,12.569486 4.41410404,12.7099195 4.19615354,12.9736275 C3.61304571,13.6788057 3.00450025,14.4396757 2.22285879,15.4407728 C1.969386,15.7652903 2.01499304,16.0565432 2.06466408,16.2011912 C2.11614133,16.351258 2.26696067,16.61903 2.69714192,16.7272526 C2.74952229,16.7403477 2.80175212,16.7544964 2.85398196,16.7686452 C2.99275983,16.8059737 3.13530062,16.8445064 3.29138812,16.8708471 C3.53281946,19.0595335 4.55920367,20.7593365 6.34284537,21.923746 C7.40941796,22.6201942 8.52219967,22.9984466 9.67080475,23.0574498 C10.7513755,23.1131415 11.2458281,21.7246103 10.3874223,21.0657918 L10.3874223,21.0657918 Z" id="路径" fill="#007CFF"></path>
                    </g>
                </g>
            </g>
            <g id="企业级活动营销与管理_export" transform="translate(2.000000, 113.000000)" fill-rule="nonzero">
                <g id="企业级活动营销与管理">
                    <g id="编组" transform="translate(0.500000, 0.000000)">
                        <path d="M9.32790932,7.85839245 L10.2388085,9.97711369 L18.7816334,9.97711369 L18.7816334,1.93251534 C18.7816334,0.865605828 17.8833158,0 16.7786618,0 L5.25905867,0 C4.15440472,0 3.25608704,0.863089532 3.25608704,1.93251534 L3.25608704,7.04059624 L8.05717983,7.04059624 C8.60321607,7.03304735 9.10395897,7.35513324 9.32790932,7.85839245 Z M6.84684145,3.63353144 C6.84684145,3.28879889 7.1286666,3.00697373 7.47339916,3.00697373 L14.5693539,3.00697373 C14.9140865,3.00697373 15.1959116,3.28879889 15.1959116,3.63353144 C15.1959116,3.978264 14.9140865,4.26008915 14.5693539,4.26008915 L7.47339916,4.26008915 C7.12363401,4.26008915 6.84684145,3.978264 6.84684145,3.63353144 Z" id="形状" fill="#007CFF"></path>
                        <path d="M19.4308378,11.9383388 L9.79845667,11.9383388 L8.88755752,9.74161235 C8.67367235,9.22577166 8.17544574,8.89110429 7.61431173,8.89110429 L1.39654429,8.89110429 C0.636622891,8.89110429 0.0201303681,9.50759682 0.0201303681,10.2675182 L0.0201303681,13.1461609 C0.0201303681,13.1864216 0.0226466641,13.2291986 0.0276792561,13.2694594 C0.0251629601,13.3097201 0.0201303681,13.3524971 0.0201303681,13.3927579 L0.0201303681,20.4056748 C0.0201303681,20.7931844 0.173624425,21.1655962 0.44790069,21.4398725 C0.722176956,21.7141488 1.09458877,21.8676428 1.48209835,21.8676428 L19.4283215,21.8676428 C19.8158311,21.8676428 20.1882429,21.7141488 20.4625192,21.4398725 C20.7367954,21.1655962 20.8902895,20.7931844 20.8902895,20.4056748 L20.8902895,13.3977905 C20.8902895,13.0102809 20.7367954,12.6378691 20.4625192,12.3635928 C20.1857266,12.0918328 19.8158311,11.9383388 19.4308378,11.9383388 Z M3.40203221,17.2376582 C2.71005081,17.2376582 2.08600939,16.819953 1.82179831,16.1808138 C1.55758723,15.5416747 1.7035324,14.8043999 2.19421012,14.3162385 C2.68237155,13.8280771 3.41964628,13.6796156 4.05878547,13.9438267 C4.69792465,14.2080378 5.11562979,14.8345955 5.11562979,15.5240606 C5.1131135,16.4701879 4.34564321,17.2376582 3.40203221,17.2376582 L3.40203221,17.2376582 Z" id="形状" fill="#94C7FF"></path>
                    </g>
                </g>
            </g>
            <g id="会展营销_export" transform="translate(29.000000, 1.000000)" fill-rule="nonzero">
                <g id="编组">
                    <g>
                        <path d="M15.4343232,18.576174 C15.5253345,18.3412173 15.5253345,18.0807441 15.4343232,17.8457873 L11.3006216,5.49661603 C11.0725875,4.73723575 10.5534141,4.09889474 9.85642264,3.72092541 L4.70504143,1.50214089 C4.57640761,1.45950586 4.44165857,1.43822969 4.30614642,1.43910106 C3.80802489,1.44250383 3.34333171,1.69034019 3.06305249,2.10214089 L0.211118785,7.11761051 C-0.0837833848,7.85457116 -0.0613939882,8.68058009 0.272997229,9.40048343 L4.40780387,21.7485497 C4.45863261,22.0800414 4.54813537,22.255732 4.69178176,22.3463398 C4.96471027,22.4641602 5.2754856,22.4568953 5.54261051,22.3264503 L14.8862569,19.017058 C15.1208622,18.9498969 15.3184589,18.7909431 15.4343232,18.576174 L15.4343232,18.576174 Z M5.80117404,7.36401933 C5.67798174,7.40731496 5.54832745,7.42935993 5.41774861,7.42923813 C4.88916737,7.43163249 4.42042861,7.09003968 4.26084253,6.58611878 C4.14493954,6.27191557 4.15684082,5.92479504 4.2939917,5.61926796 C4.43875675,5.32357757 4.69641372,5.09857574 5.00890885,4.99495856 C5.316669,4.8723401 5.66222952,4.88754158 5.95803349,5.0367113 C6.25383747,5.18588102 6.47149987,5.45470482 6.55587017,5.77506907 C6.77587132,6.42136948 6.44195331,7.12543706 5.802279,7.36401933 L5.80117404,7.36401933 Z" id="形状" fill="#94C7FF"></path>
                        <path d="M17.8575276,16.3584945 C18.1680195,16.5382628 18.5428296,16.5690914 18.8785221,16.4424724 C19.101529,16.3467656 19.270945,16.1575373 19.3415055,15.9253453 L19.3757597,15.8468923 L20.1160912,14.5352901 L23.7536602,7.31540055 C23.9079296,7.00509112 23.9247687,6.6442534 23.8000691,6.32092541 C23.7111336,6.09356862 23.526954,5.91665926 23.2962017,5.83694751 L11.6354282,0.319820433 C10.8470756,-0.00722888206 9.97732248,-0.0843688479 9.14371546,0.0988259669 L6.80117403,0.927555249 L10.1558702,2.3253453 C11.4582318,3.05774002 12.4073501,4.28760583 12.7857044,5.7330801 L16.1735497,15.8557321 L17.8575276,16.3584945 Z" id="路径" fill="#007CFF"></path>
                    </g>
                </g>
            </g>
            <g id="会展商贸平台_export" transform="translate(30.000000, 29.000000)" fill-rule="nonzero">
                <g id="会展商贸平台">
                    <g id="编组" transform="translate(0.500000, 0.500000)">
                        <g id="蒙版" fill="#94C7FF">
                            <g id="path-3-link">
                                <path d="M21.245783,13.6599241 L21.245783,14.9237359 C21.245783,15.554148 20.6930521,16.1875478 20.0297749,16.1875478 L20.0297749,16.1875478 L1.44307597,16.1875478 C0.669252622,16.1875478 0.00597546984,15.6617065 0.00597546984,14.9237359 L0.00597546984,14.9237359 L-1.00341825e-12,14.9237359 L-1.00341825e-12,13.6599241 L21.245783,13.6599241 Z M19.9252042,-4.52342328e-15 C20.6990275,-4.52342328e-15 21.2517585,0.5646819 21.2547462,1.35344392 L21.2547462,1.35344392 L21.2547462,12.6440942 L0.00896320476,12.6440942 L0.00896320476,1.35344392 C0.00896320476,0.5646819 0.672240357,-4.52342328e-15 1.33551751,-4.52342328e-15 L1.33551751,-4.52342328e-15 L19.9252042,-4.52342328e-15 Z" id="path-3"></path>
                            </g>
                        </g>
                        <path d="M12.8728386,17.7728989 L12.8728386,17.5 L9.23078972,17.5 L9.23078972,17.6364494 C7.52479308,18.1822472 6.5,19.0045346 6.5,20.2361704 C6.5,21.0584578 7.06766964,21.740705 7.97892879,22.2865028 C8.77665401,22.6958511 9.91498102,22.96875 11.053308,22.96875 C13.6705638,22.96875 15.606616,21.7371142 15.606616,20.2325796 C15.6036283,19.0045346 14.581823,18.1822472 12.8728386,17.7728989 L12.8728386,17.7728989 Z" id="路径" fill="#007CFF"></path>
                    </g>
                </g>
            </g>
            <g id="展览服务平台_export" transform="translate(29.000000, 57.000000)" fill-rule="nonzero">
                <g id="展览服务平台">
                    <g id="编组">
                        <path d="M21.7911131,14.9687646 C21.7911131,14.7220853 21.6964416,14.4860733 21.5257662,14.3087309 C21.3591406,14.1349951 21.1291227,14.0363473 20.8884003,14.0353836 L16.7348548,14.0353836 C16.2330495,14.0509871 15.8368478,14.4667909 15.8454761,14.9687646 L15.8454761,18.0555889 L21.7911131,18.0555889 L21.7911131,14.9687646 Z M23.1845176,19.400991 L0.704035982,19.400991 C0.516026385,19.400991 0.336683882,19.4776616 0.206677235,19.6130018 C0.0733370815,19.7510089 2.14861161e-08,19.935685 0.00065776303,20.1263614 L0.00065776303,21.4990982 L23.8878869,21.4990982 L23.8878869,20.1270281 C23.8878869,19.935685 23.8145498,19.7510089 23.6818763,19.6136685 C23.5519672,19.477926 23.3724061,19.4009025 23.1845176,19.4003243 L23.1845176,19.400991 Z" id="形状" fill="#007CFF"></path>
                        <path d="M12.3159624,8.39706457 C12.8517663,8.39495639 13.365025,8.61254918 13.736035,8.99912633 C14.1149526,9.39393134 14.3243356,9.9213372 14.319566,10.4685347 L14.319566,10.4685347 L14.3187314,10.4685347 L14.3187314,18.0829237 L2.04343774,18.0829237 L2.04343774,10.4685347 C2.04343774,9.3244763 2.9408169,8.39706457 4.0475401,8.39706457 L4.0475401,8.39706457 L12.3159624,8.39706457 Z M8.24175433,0.000666692927 C10.1258506,0.000666692927 11.6519285,1.58008072 11.6519285,3.52684682 C11.6519285,5.47361292 10.1258506,7.05236023 8.24108764,7.05236023 C7.33141628,7.04967748 6.46125303,6.67716291 5.83096454,6.02030752 C5.18959842,5.35827369 4.83091344,4.46222793 4.83091344,3.52684682 C4.83091344,1.58008069 6.35699141,0.000666692927 8.24175433,0.000666692927 Z" id="形状结合" fill="#94C7FF"></path>
                    </g>
                </g>
            </g>
            <g id="数据管理" transform="translate(29.000000, 113.000000)" fill-rule="nonzero">
                <g id="数据管理_export" transform="translate(0.500000, 0.500000)">
                    <g id="数据管理">
                        <path d="M10.0317073,2.58853251 C10.0317073,2.30682519 9.80121951,2.07633739 9.5195122,2.10194714 C4.41036585,2.38365446 0.3,6.67328861 0.3,11.8464593 C0.3,17.1988984 4.70487805,21.6037764 10.0573171,21.6037764 C15.2432927,21.6037764 19.5329268,17.4806057 19.8018293,12.3586545 C19.8146341,12.0769471 19.5841463,11.8464593 19.3152439,11.8464593 L10.5310976,11.8464593 C10.2621951,11.8464593 10.0445122,11.6287764 10.0445122,11.359874 L10.0317073,2.58853251 Z" id="形状" fill="#94C7FF"></path>
                        <path d="M12.1146341,0.487094619 L12.1018293,9.2456312 C12.1018293,9.51453364 12.3195122,9.73221657 12.5884146,9.74502145 L21.8591463,9.80904584 L21.8591463,9.74502145 C21.8591463,4.57185072 17.7487805,0.28221657 12.6396341,0.000509252926 C12.3579268,-0.0122956251 12.1146341,0.21819218 12.1146341,0.487094619 L12.1146341,0.487094619 Z" id="路径" fill="#007CFF"></path>
                    </g>
                </g>
            </g>
            <g id="31防疫" transform="translate(2.000000, 140.000000)" fill-rule="nonzero">
                <g id="31接待_export">
                    <g>
                        <g id="编组" transform="translate(0.742899, 0.371449)">
                            <path d="M10.2156805,-1.27273193e-13 C9.15251014,0.531585185 5.65098164,3.32818551 -3.07919015e-14,3.32818551 L-3.07919015e-14,11.9953353 C-3.07919015e-14,18.9983923 5.11939646,22.164791 10.2156805,23.1008432 C15.335077,22.0376728 20.431361,18.8943865 20.431361,12.0415601 L20.431361,3.32818551 C14.8034918,3.32818551 11.2788509,0.531585185 10.2156805,-1.27273193e-13 Z M10.2156805,16.8836077 C7.2804058,16.8720515 4.89982866,14.4914744 4.87671626,11.5446435 C4.89982866,8.60936876 7.2804058,6.22879163 10.2156805,6.20567923 C13.1625114,6.21723543 15.5430886,8.59781256 15.5546448,11.5446435 C15.5546448,14.4914744 13.1625114,16.8836077 10.2156805,16.8836077 Z" id="形状" fill="#9CCAFF"></path>
                            <polygon id="路径" fill="#007CFF" points="12.8967188 10.6663723 11.1170641 10.6663723 11.1170641 8.88671755 9.34896554 8.88671755 9.34896554 10.6663723 7.56931079 10.6663723 7.56931079 12.4460271 9.34896554 12.4460271 9.34896554 14.2141256 11.1286203 14.2141256 11.1286203 12.4344709 12.908275 12.4344709 12.908275 10.6663723"></polygon>
                        </g>
                    </g>
                </g>
            </g>
            <g id="31电子签到_export" transform="translate(58.000000, 0.000000)" fill-rule="nonzero">
                <g id="31电子签到">
                    <g id="编组">
                        <path d="M20.0295753,12.000341 C21.2029678,12.000341 22.1356643,12.9330225 22.1356643,14.1063961 L22.1356643,22.2297515 C22.1356643,23.4031251 21.2029678,24.3358066 20.0295753,24.3358066 L11.906089,24.3358066 C10.7326966,24.3358066 9.8,23.4031251 9.8,22.2297515 L9.80088337,19.0039648 C12.3346349,16.2857565 14.0166344,13.9508782 14.8468819,12 L20.0295753,12.000341 Z" id="形状结合" fill="#007CFF"></path>
                        <g id="形状" fill="#9CCAFF">
                            <g id="蒙版">
                                <path d="M7.1958042,0 C11.1696871,0 14.3916084,3.43224747 14.3916084,7.6657445 C14.3916084,10.3594319 12.2058829,14.1051266 7.83443181,18.8998901 C7.66530307,19.0848415 7.43548973,19.1888112 7.1958042,19.1888112 C6.95611866,19.1888112 6.72630532,19.0848415 6.55717658,18.8998901 L6.24865647,18.5590162 C2.08318532,13.9268535 0,10.2947834 0,7.66672401 C0,3.43126796 3.22192133,0 7.1958042,0 Z" id="path-5"></path>
                            </g>
                        </g>
                        <path d="M7.53846154,5.48251748 C6.40299499,5.48251748 5.48251748,6.40299499 5.48251748,7.53846154 C5.48251748,8.67392809 6.40299499,9.59440559 7.53846154,9.59440559 C8.67392809,9.59440559 9.59440559,8.67392809 9.59440559,7.53846154 C9.59440559,6.40299499 8.67392809,5.48251748 7.53846154,5.48251748 Z" id="路径" fill="#FFFFFF"></path>
                    </g>
                </g>
            </g>
            <g id="31接待_export" transform="translate(56.000000, 28.000000)">
                <g id="编组">
                    <g>
                        <path d="M25.3981481,16.9329854 C25.3981481,20.7086615 22.3225514,23.712963 18.3398797,23.712963 C15.5173226,23.712963 13.0383456,22.096951 11.917226,19.745826 L17.3124649,12.978846 L22.1646572,12.978846 C22.5823495,12.978846 23.1350957,12.978846 23.1350957,11.9900094 L23.1332167,11.9160636 C24.5358652,13.1510619 25.3981481,14.9337914 25.3981481,16.9329854 Z" id="形状结合" fill="#007CFF" fill-rule="nonzero"></path>
                        <g id="蒙版">
                            <g id="路径" fill="#9CCAFF" fill-rule="nonzero">
                                <path d="M19.5167799,7.73692051 L16.0731223,7.73692051 L9.91207609,0 L7.0695625,0 L9.91207609,7.73692051 L4.10736413,7.73692051 L1.67966712,5.77319988 L0,5.77319988 L1.43077717,11.6060747 L9.91207609,11.6060747 L7.0695625,19.3429952 L9.91207609,19.3429952 L16.0731223,11.6060747 L20.8129117,11.6060747 C21.220928,11.6060747 21.7608696,11.6060747 21.7608696,10.6387861 C21.7608696,9.35369403 20.7789103,7.7383083 19.5167799,7.7383083 L19.5167799,7.73692051 Z" id="path-7"></path>
                            </g>
                            <g id="矩形备份-49-Clipped">
                                <mask id="mask-2" fill="white">
                                    <use xlink:href="#path-1"></use>
                                </mask>
                                <g id="path-7"></g>
                                <path d="M14.0364636,7.27665048 C14.3416876,7.27665048 14.5891206,7.52408345 14.5891206,7.82930749 L14.5891206,11.5136875 C14.5891206,11.8189115 14.3416876,12.0663445 14.0364636,12.0663445 C13.7312395,12.0663445 13.4838066,11.8189115 13.4838066,11.5136875 L13.4838066,7.82930749 C13.4838066,7.52408345 13.7312395,7.27665048 14.0364636,7.27665048 Z" id="矩形备份-49" fill="#FFFFFF" fill-rule="nonzero" mask="url(#mask-2)" transform="translate(14.036464, 9.671498) rotate(-90.000000) translate(-14.036464, -9.671498) "></path>
                            </g>
                        </g>
                    </g>
                </g>
            </g>
            <g id="数据报告_export" transform="translate(57.000000, 112.000000)" fill-rule="nonzero">
                <g id="数据报告">
                    <g id="编组" transform="translate(0.500000, 0.500000)">
                        <path d="M17.3929286,0 C17.6894987,0.000434850115 17.973725,0.118776832 18.1829692,0.328945518 C18.3922134,0.539114205 18.5093012,0.823859456 18.5084382,1.12042858 L18.4854286,3.77857142 C18.4883056,3.84025856 18.4643405,3.9001713 18.4197143,3.94285714 L10.6917143,11.5969286 C10.0214286,12.2705 9.637,13.1839286 9.61564286,14.1466429 L9.47764286,20.056 C9.47512345,20.1363382 9.50673891,20.2139866 9.56465972,20.2697158 C9.62258054,20.325445 9.70139012,20.3540434 9.78157142,20.3484286 L15.4888571,19.9492143 C16.3815743,19.8882684 17.2219922,19.5059951 17.8545714,18.8731429 L18.1601429,18.5659286 C18.1763185,18.5499532 18.1981948,18.5410845 18.2209286,18.5412857 C18.3934286,18.5429286 18.4903572,18.6546429 18.4903571,18.7762143 L18.4903571,21.8680714 C18.4912302,22.164925 18.3739172,22.4499195 18.1643175,22.6601356 C17.9547179,22.8703517 17.6700692,22.9885 17.3732143,22.9885 L1.11714286,22.9885 C0.820002245,22.9885 0.53510312,22.8701279 0.325455941,22.6595558 C0.115808761,22.4489838 -0.00131091108,22.1635663 -2.15954097e-05,21.8664286 L0.023,1.12371428 C0.0212525088,0.826861202 0.137728286,0.541519462 0.346712003,0.330686332 C0.555695721,0.119853201 0.840000188,0.000867970664 1.13685714,0 L17.3929286,0 Z M4.66242858,3.7605 L1.53442858,6.9115 C1.35068371,7.0971512 1.35068371,7.39613452 1.53442858,7.58178572 L2.44292858,8.49357142 C2.62528572,8.67921428 2.92428572,8.67921428 3.10828572,8.49357142 L4.76428572,6.82935714 C4.89056253,6.70362256 5.09472319,6.70362256 5.221,6.82935714 L7.28114286,8.89935714 C7.40764286,9.02585714 7.61135714,9.02585714 7.7395,8.89935714 L11.0745,5.54792858 C11.1997327,5.42016572 11.1997327,5.21569145 11.0745,5.08792858 L9.96228572,3.97078572 C9.83600891,3.84505112 9.63184823,3.84505112 9.50557142,3.97078572 L7.751,5.73357142 C7.69027868,5.79446744 7.60781797,5.8286932 7.52182143,5.8286932 C7.43582489,5.8286932 7.35336418,5.79446744 7.29264286,5.73357142 L5.32942858,3.76214286 C5.24121279,3.67325368 5.12116162,3.62325926 4.99592858,3.62325926 C4.87069555,3.62325926 4.75064437,3.67325368 4.66242858,3.76214286 L4.66242858,3.7605 Z" id="形状" fill="#94C7FF"></path>
                        <path d="M20.033,6.83921428 L22.7157857,9.5335 C23.0634085,9.88544235 23.0634085,10.4514862 22.7157857,10.8034286 L15.939,17.6147143 C15.7895326,17.7648109 15.5915318,17.8568231 15.3804286,17.8742857 L12.0684286,18.1502857 C11.9514731,18.1602783 11.8358605,18.119548 11.7509947,18.0384541 C11.6661289,17.9573601 11.6201883,17.8437173 11.6248571,17.7264286 L11.7513571,14.237 C11.7598022,14.0111993 11.8523912,13.796721 12.0109286,13.6357143 L18.7729286,6.84085714 C18.9392979,6.67259115 19.1659954,6.57776286 19.4026219,6.57745284 C19.6392485,6.57714584 19.8661924,6.67138268 20.033,6.83921428 L20.033,6.83921428 Z" id="路径" fill="#007CFF"></path>
                    </g>
                </g>
            </g>
            <g id="大型智慧现场" transform="translate(57.000000, 84.000000)" fill-rule="nonzero">
                <g id="大型智慧现场_export">
                    <g id="编组">
                        <path d="M2.4,7.2 L0,7.2 L0,24 L24,24 L24,21.6 L2.4,21.6 L2.4,7.2 Z M21.6,0 L0,0 L0,2.4 L21.6,2.4 L21.6,16.8 L24,16.8 L24,0 L21.6,0 Z" id="形状" fill="#94C7FF"></path>
                        <polygon id="路径" fill="#007CFF" points="7.20776787 11.3499107 7.20776787 15.5933036 12.0358929 18.01125 16.8640179 15.6115179 16.8640179 10.7900893 19.2077679 9.61714287 12.0042857 6.01151787 4.80776787 9.61714287 12.0042857 13.2227679 12.0358929 13.2069643 12.0358929 13.760625"></polygon>
                    </g>
                </g>
            </g>
            <g id="融合展_export" transform="translate(30.000000, 85.000000)" fill-rule="nonzero">
                <g id="融合会\展_export">
                    <g id="融合展">
                        <path d="M21.625,8.5 C22.1082492,8.5 22.5,8.89175084 22.5,9.375 L22.5,21.625 C22.5,22.1082492 22.1082492,22.5 21.625,22.5 L9.375,22.5 C8.89175084,22.5 8.5,22.1082492 8.5,21.625 L8.5,15.5 L13.75,15.5 C14.6681734,15.5 15.4211923,14.7928897 15.4941988,13.8935272 L15.5,13.75 L15.5,8.5 L21.625,8.5 Z" id="形状结合" fill="#007CFF"></path>
                        <g id="蒙版" fill="#94C7FF">
                            <g id="path-9-link">
                                <rect id="path-9" x="0" y="0" width="14" height="14" rx="1.75"></rect>
                            </g>
                        </g>
                    </g>
                </g>
            </g>
            <g id="融合展_export" transform="translate(30.000000, 85.000000)" fill-rule="nonzero">
                <g id="融合会\展_export">
                    <g id="融合展">
                        <path d="M21.625,8.5 C22.1082492,8.5 22.5,8.89175084 22.5,9.375 L22.5,21.625 C22.5,22.1082492 22.1082492,22.5 21.625,22.5 L9.375,22.5 C8.89175084,22.5 8.5,22.1082492 8.5,21.625 L8.5,15.5 L13.75,15.5 C14.6681734,15.5 15.4211923,14.7928897 15.4941988,13.8935272 L15.5,13.75 L15.5,8.5 L21.625,8.5 Z" id="形状结合" fill="#007CFF"></path>
                        <g id="蒙版" fill="#94C7FF">
                            <g id="path-11-link">
                                <rect id="path-11" x="0" y="0" width="14" height="14" rx="1.75"></rect>
                            </g>
                        </g>
                    </g>
                </g>
            </g>
            <g id="31互动" transform="translate(57.000000, 57.000000)" fill-rule="nonzero">
                <g id="编组">
                    <g>
                        <path d="M23.7713099,0.898616042 L23.7713099,0.899473508 C23.533794,0.372994262 23.0253214,0.00600219895 22.4336753,0.00600219895 L5.92503523,0.00600219895 C5.33338915,0.00600219895 4.82491652,0.372994241 4.58911556,0.899473508 C4.49573418,1.10321657 4.44663584,1.32445133 4.4450626,1.54856926 L4.4450626,12.0815841 C4.4450626,12.2316393 4.47250126,12.3739773 4.51194434,12.5103132 C4.69201053,13.1534067 5.25364557,13.6250086 5.92417776,13.6250086 L16.1253564,13.6250086 C16.2229057,13.6438663 16.3111738,13.6952553 16.3757341,13.7707765 C16.4211794,13.8565223 16.4786291,13.9336935 16.5489406,13.9997178 L18.1901154,15.5688661 C18.4554951,15.891119 18.8496461,16.0797215 19.2670827,16.0841984 C19.3382517,16.0841984 19.4059909,16.070479 19.475445,16.0593321 C19.842437,16.0010249 20.1725584,15.8020947 20.396355,15.5036992 C20.5146842,15.3493568 20.579851,15.1598586 20.5807084,14.9643581 L20.5884256,13.6841732 C20.6329297,13.6538015 20.6835755,13.6336017 20.7367658,13.6250086 L22.4328179,13.6250086 C23.105065,13.6250086 23.6684149,13.1516918 23.8493386,12.5111706 C23.8913541,12.371405 23.913648,12.2256371 23.9153629,12.0790117 L23.9153629,1.5519991 C23.9153629,1.31791305 23.8622005,1.09754632 23.7721674,0.898616042 L23.7713099,0.898616042 Z M10.2157554,8.04552901 C9.86129809,8.0446208 9.5217321,7.90288273 9.27181687,7.65152011 C9.02190164,7.40015749 8.88212684,7.05977867 8.88325183,6.70532205 C8.88325183,5.96533575 9.47834145,5.3651151 10.2140405,5.3651151 L10.2174703,5.3651151 C10.9531693,5.3651151 11.5491027,5.96533575 11.548247,6.70532205 C11.548247,7.44530836 10.9514544,8.04467154 10.2157554,8.04467156 L10.2157554,8.04552901 Z M14.6556732,8.04552901 C14.3012162,8.04484765 13.9615602,7.90332754 13.7114843,7.65212587 C13.4614084,7.4009242 13.3214153,7.06063603 13.3223171,6.70617952 C13.3223171,5.96619321 13.9182593,5.36597257 14.6539583,5.36597257 L14.6573881,5.36597257 C15.3930872,5.36597257 15.9890205,5.96619321 15.9881649,6.70617952 C15.9881649,7.44616582 15.3913723,8.04552901 14.6556732,8.04552901 L14.6556732,8.04552901 Z M19.1719049,8.04552901 C18.8174478,8.04484765 18.4777919,7.90332754 18.2277159,7.65212587 C17.97764,7.4009242 17.8376469,7.06063603 17.8385488,6.70617952 C17.8385488,5.96619321 18.4344909,5.36597257 19.1701899,5.36597257 L19.1736198,5.36597257 C19.9093188,5.36597257 20.5052521,5.96619321 20.5043965,6.70617952 C20.5043965,7.44616582 19.9076039,8.04552901 19.1719049,8.04552901 L19.1719049,8.04552901 Z" id="形状" fill="#94C7FF"></path>
                        <path d="M14.7877218,17.7236582 L14.2440934,17.1980364 L14.2346613,17.1980364 L12.0189897,15.0938343 L6.2200008,15.0938343 C3.02768442,15.0663956 2.94536844,12.442574 2.94536844,12.442574 L2.94451099,6.16083619 C2.90031977,5.71300528 2.52589053,5.37036372 2.07590597,5.36597257 L1.48425992,5.36597257 C0.668817298,5.36597257 0.00514475393,6.05879868 0.00514475393,6.911112 L0.00514475393,17.4389821 C0.00514475393,18.2912954 0.671389675,18.9841215 1.4885472,18.9841215 L3.1837418,18.9841215 C3.23756829,18.9928406 3.28880602,19.0133357 3.33379694,19.0441436 L3.34065661,20.323471 C3.34065661,20.4006423 3.35780576,20.4752411 3.37838477,20.5506974 C3.4066809,20.6630244 3.455556,20.7693492 3.52415265,20.8628121 C3.8071138,21.2315191 4.21697876,21.4433113 4.65256746,21.4433113 L4.65428237,21.4433113 C5.06500477,21.4433113 5.45171837,21.2563854 5.73210716,20.9288364 L6.12653786,20.5506974 L7.37156697,19.3588307 C7.42644429,19.3073832 7.50361552,19.1959137 7.54391604,19.1324618 C7.60843339,19.056138 7.69706067,19.0041111 7.79515127,18.984979 L14.5090479,18.984979 C14.9334896,18.984979 15.3159159,18.7963382 15.5868727,18.4962279 L15.5774406,18.4859384 L15.5920174,18.4859384 L14.7885792,17.7228007 L14.7877218,17.7236582 Z" id="路径" fill="#007CFF"></path>
                    </g>
                </g>
            </g>
        </g>
    </g>
</svg>