<?xml version="1.0" encoding="UTF-8"?>
<svg width="135px" height="92px" viewBox="0 0 135 92" version="1.1" xmlns="http://www.w3.org/2000/svg" xmlns:xlink="http://www.w3.org/1999/xlink">
    <!-- Generator: Sketch 62 (91390) - https://sketch.com -->
    <title>服务图标</title>
    <desc>Created with Sketch.</desc>
    <g id="页面-1" stroke="none" stroke-width="1" fill="none" fill-rule="evenodd">
        <g id="首页" transform="translate(-649.000000, -7216.000000)">
            <g id="服务图标" transform="translate(644.000000, 7213.000000)">
                <g id="数字会展策划服务-_export">
                    <g id="数字会展策划服务-">
                        <g transform="translate(6.000000, 3.000000)" fill-rule="nonzero">
                            <path d="M26.1683292,8.49816209 L31.3072425,8.49816209 L31.3072425,22.7565406 L14.9216909,39.6791508 L2.41138536,39.6791508 C1.7699637,39.673604 1.15718192,39.4127386 0.708578832,38.9542544 C0.25997574,38.4957702 0.0125210207,37.8774512 0.0209482126,37.2360609 L0.0209482126,2.48521221 C-0.0204568525,1.1571205 1.0202537,0.0457734895 2.34820202,-2.67730093e-16 L22.4510414,-2.67730093e-16 L22.4510414,4.60185482 C22.409838,6.70512663 24.0758211,8.44640839 26.1788597,8.49816209 L26.1683292,8.49816209 Z M18.5020814,26.7370924 L18.5020814,22.1141764 L5.38100334,22.1141764 L5.38100334,26.7897452 L18.5020814,26.7897452 L18.5020814,26.7370924 Z M26.5474294,17.7755856 L26.5474294,13.1000169 L5.38100334,13.1000169 L5.38100334,17.7755856 L26.5474294,17.7755856 Z" id="形状" fill="#007CFF"></path>
                            <path d="M38.984021,27.0424786 C39.0060671,27.4427809 38.843005,27.831024 38.5417374,28.0955346 L38.0994539,28.5588793 L37.8045982,28.94851 C37.748095,29.0862285 37.6432418,29.1985712 37.5097425,29.2644268 L33.6344964,25.3681195 C33.8530164,25.2068885 34.0541787,25.0233719 34.2347383,24.8205304 L34.7717969,24.2202885 C35.044969,23.8480664 35.5087988,23.6674601 35.9617502,23.7569438 C36.3321478,23.7730124 36.6932796,23.8777406 37.0148062,24.0623301 C37.3852685,24.2567287 37.7143298,24.5214085 37.9836177,24.8415915 C38.3270162,25.2092926 38.6048348,25.633144 38.8050014,26.0947282 C38.8898453,26.3968774 38.9393192,26.7078561 38.9524293,27.0214175 L38.984021,27.0424786 Z" id="路径" fill="#9CCAFF"></path>
                            <path d="M27.6636687,31.3284166 L32.2128708,26.7370924 L36.014403,30.6333996 L31.6126288,35.15101 L29.9698614,36.7937773 L28.4534607,38.3523003 L26.915999,40.0161288 L26.389471,40.4057595 L25.8734735,40.7216763 L24.904662,41.185021 C24.5174174,41.3420383 24.1198273,41.4722227 23.7147087,41.5746517 C23.353104,41.7139648 22.9794496,41.819716 22.5984693,41.8905685 C22.3036136,41.9642824 22.0824718,42.0379963 21.7770856,42.1222408 C21.5177449,42.2105457 21.2308771,42.1499398 21.0294158,41.9642824 C20.8950428,41.7268629 20.8682311,41.4434257 20.9557019,41.185021 C20.9859576,40.8911668 21.0605159,40.6035847 21.1768437,40.3320456 L21.4716993,39.2789895 L21.8402689,38.2259335 L22.0614107,37.5309166 C22.2616342,37.14756 22.5131723,36.793281 22.8090805,36.4778605 L23.4093224,35.8460269 L24.5255618,34.6771348 L26.0103708,33.1186118 L27.6531382,31.4021305 L27.6636687,31.3284166 Z" id="路径" fill="#9CCAFF"></path>
                            <path d="M24.7572341,0 L31.3809565,6.07613326 L27.6636687,6.07613326 C26.0259549,6.03587672 24.7277958,4.68127595 24.7572341,3.0433319 L24.7572341,0 Z" id="路径" fill="#9CCAFF"></path>
                        </g>
                    </g>
                </g>
                <g id="培训及实施服务_export" transform="translate(48.000000, 0.000000)">
                    <g id="培训及实施服务">
                        <g transform="translate(4.000000, 4.500000)" fill-rule="nonzero">
                            <path d="M37.1241634,0.0232188653 L2.7666479,0.0232188653 C1.2550197,0.0232188653 0.0508413086,1.25301808 0.0508413086,2.73902546 L0.0508413086,23.8505786 C0.0508413086,25.3622068 1.28064052,26.5663852 2.7666479,26.5663852 L6.68663289,26.5663852 L6.68663289,19.8024895 C6.68663289,16.8817164 9.06936886,14.4989804 11.990142,14.4989804 L14.6547069,14.4989804 C16.4481641,14.4989804 18.1135172,15.4213298 19.0871083,16.9073372 L25.5435541,10.502133 C26.0559705,9.93847501 26.5171452,9.86161256 26.7733533,10.1178207 C27.0295615,10.3740289 27.0295615,10.8352036 26.542766,11.3988616 L19.9838369,19.7256271 L19.9838369,26.5663852 L37.1241634,26.5663852 C38.6357916,26.5663852 39.83997,25.336586 39.83997,23.8505786 L39.83997,2.73902546 C39.83997,1.25301808 38.6357916,0.0232188653 37.1241634,0.0232188653 Z M13.2968037,14.0378057 C11.2471383,14.0378057 9.60740602,12.3724526 9.60740602,10.3484081 C9.60740602,8.29874273 11.2727591,6.65901045 13.2968037,6.65901045 C15.346469,6.65901045 16.9862013,8.32436355 16.9862013,10.3484081 L16.9862013,10.3740289 C16.9862013,12.3980734 15.346469,14.0378057 13.2968037,14.0378057 Z" id="形状" fill="#007CFF"></path>
                            <path d="M4.45762182,29.384675 L6.66101207,29.384675 C9.09498968,29.384675 11.0934134,31.357478 11.0934134,33.8170764 L11.0934134,38.6081691 L0.0252204916,38.6081691 L0.0252204916,33.7914556 C0.0508413086,31.357478 2.02364421,29.384675 4.45762182,29.384675 L4.45762182,29.384675 Z" id="路径" fill="#9CCAFF"></path>
                            <path d="M33.2041784,29.384675 L35.4075686,29.384675 C37.8415463,29.384675 39.83997,31.357478 39.83997,33.8170764 L39.83997,38.6081691 L28.7717771,38.6081691 L28.7717771,33.7914556 C28.7973979,31.357478 30.7702008,29.384675 33.2041784,29.384675 L33.2041784,29.384675 Z" id="路径" fill="#9CCAFF"></path>
                            <path d="M18.8052793,29.384675 L21.0086695,29.384675 C23.4426472,29.384675 25.4410709,31.357478 25.4410709,33.8170764 L25.4410709,38.6081691 L14.3984988,38.6081691 L14.3984988,33.7914556 C14.3984988,31.357478 16.3713017,29.384675 18.8052793,29.384675 L18.8052793,29.384675 Z" id="路径" fill="#9CCAFF"></path>
                        </g>
                    </g>
                </g>
                <g id="系统集成服务_export" transform="translate(96.000000, 0.000000)">
                    <g id="系统集成服务">
                        <g transform="translate(2.500000, 4.000000)">
                            <path d="M1,27.4779646 C1,29.313643 2.48811132,30.8017543 4.32378966,30.8017543 L18.4912551,30.8017543 L18.4912551,33.0877997 C18.0814732,33.3571672 17.7288316,33.7046981 17.4535108,34.1105042 L7.24150548,34.1105042 C6.15951866,34.2025255 5.32813387,35.1076198 5.32813387,36.1935127 C5.32813387,37.2794056 6.15951866,38.1844998 7.24150548,38.2765211 L17.4535108,38.2765211 C18.1484592,39.3160003 19.3163556,39.940059 20.5667437,39.940059 C21.8171317,39.940059 22.9850281,39.3160003 23.6799765,38.2765211 L34.7191693,38.2765211 C35.5056129,38.343407 36.2626827,37.9616602 36.6764951,37.2895542 C37.0903075,36.6174482 37.0903075,35.7695771 36.6764951,35.0974712 C36.2626827,34.4253652 35.5056129,34.0436184 34.7191693,34.1105042 L23.6799765,34.1105042 C23.4088451,33.7012289 23.0554218,33.3529277 22.6422322,33.0877997 L22.6422322,30.8017543 L37.6820044,30.8017543 C38.5635283,30.8017543 39.4089472,30.4515703 40.0322787,29.8282389 C40.6556102,29.2049074 41.0057942,28.3594885 41.0057942,27.4779646 L41.0057942,3.32409046 C41.0057942,2.43469323 40.6495053,1.58236407 40.0163811,0.957719212 C39.3832569,0.333074359 38.5262004,-0.0117724748 37.6368852,-5.86950733e-06 L4.32378966,-5.86950733e-06 C2.48811132,-5.86950733e-06 1,1.48841212 1,3.32409046 L1,27.4779646 Z" id="路径" fill="#9CCAFF" fill-rule="nonzero"></path>
                            <rect id="矩形" fill="#007CFF" x="0.5" y="0" width="40.5" height="31" rx="3"></rect>
                            <path d="M8.63148169,18.0562204 L33.3725743,18.0562204 C34.2658104,18.0634172 34.9881441,18.7767462 34.9953772,19.6588472 L34.9953772,24.4665659 C34.9880732,25.3465083 34.2636546,26.0560325 33.3725743,26.056003 L8.63148169,26.056003 C8.20002482,26.0630465 7.78377413,25.8987031 7.47615566,25.599859 C7.16853719,25.3010149 6.99537716,24.8927024 6.99537716,24.4665659 L6.99537716,19.6588472 C6.99537716,19.2315327 7.16816075,18.8219086 7.4753783,18.5209874 C7.78259584,18.2200662 8.19878754,18.0527717 8.63148169,18.0562204 Z" id="路径" fill="#FFFFFF" fill-rule="nonzero"></path>
                            <path d="M8.62647127,4.74590438 L33.3793229,4.74590438 C33.8075788,4.7428747 34.2194326,4.90832623 34.5238095,5.2057141 C34.8307426,5.50886583 35.0028971,5.91997137 35.0028971,6.34856521 L35.0028971,11.1432854 C34.9956605,12.0254117 34.2729835,12.7387612 33.3793229,12.7459044 L8.62647127,12.7459044 C8.19227328,12.7460845 7.77579225,12.5759718 7.46867661,12.2730003 C7.17223377,11.9694254 7.00545695,11.5649202 7.00289714,11.1432854 L7.00289714,6.36170142 C7.00340872,5.93578518 7.17023443,5.5264564 7.46867661,5.21885031 C7.77495538,4.91464388 8.19198147,4.7443086 8.62647127,4.74590438 Z" id="路径" fill="#FFFFFF" fill-rule="nonzero"></path>
                            <path d="M28.5077434,8.48273233 C28.5077653,9.32963604 29.0187489,10.0928528 29.8017738,10.4155258 C30.5847987,10.7381988 31.4851399,10.5565682 32.0818254,9.95555884 C32.678511,9.35454947 32.8536363,8.45292034 32.5253181,7.67224558 C32.197,6.89157082 31.4301138,6.38611114 30.583232,6.39220398 C30.0301624,6.3921495 29.4999617,6.61291972 29.1102969,7.00540822 C28.720632,7.39789672 28.5037357,7.92967732 28.5077434,8.48273233 L28.5077434,8.48273233 Z M28.5077434,21.7929308 C28.5016626,22.641177 29.008761,23.4090082 29.7912899,23.7364333 C30.5738189,24.0638584 31.4766287,23.8859597 32.0764448,23.2861436 C32.6762609,22.6863275 32.8541596,21.7835176 32.5267345,21.0009887 C32.1993094,20.2184597 31.4314782,19.7113613 30.583232,19.7174422 C29.4369713,19.7174422 28.5077434,20.6466701 28.5077434,21.7929308 L28.5077434,21.7929308 Z" id="形状" fill="#9CCAFF" fill-rule="nonzero"></path>
                        </g>
                    </g>
                </g>
                <g id="定制开发服务_export" transform="translate(0.000000, 48.000000)">
                    <g id="定制开发服务_export_export">
                        <g id="定制开发服务_export" transform="translate(4.500000, 3.000000)" fill-rule="nonzero">
                            <g id="定制开发服务">
                                <path d="M35.9600238,0 L23.0399762,0 C21.3609922,0 20,1.25362442 20,2.80000843 L20,6.99997896 L27.6000091,6.99997896 L27.6000091,10.4999474 L20,10.4999473 L20,15.1666561 L27.6000091,15.1666561 L27.6000091,18.6666245 L20,18.6666245 L20,23.3333334 L27.6000091,23.3333334 L27.6000091,26.8333018 L20,26.8333017 L20,39.2000337 C20,40.7463334 21.3609922,42 23.0399762,42 L35.9600238,42 C37.6389621,42 39,40.7463334 39,39.2000337 L39,2.80000843 C39,1.25362442 37.638962,0 35.9600238,0 Z M29.0000433,38 C27.3432195,38 26,36.6569344 26,35.0000867 C26,33.3431523 27.3431762,32 29.0000433,32 C30.6568672,32 32,33.3431089 32,35.0000867 C32,36.6568911 30.6568238,38 29.0000433,38 Z" id="形状" fill="#007CFF"></path>
                                <polygon id="路径" fill="#9CCAFF" points="0.91957911 13.0925658 13.9195791 13.0925658 13.9195791 34.4857518 0.91957911 34.4857518"></polygon>
                                <path d="M1,37 L1,38.9016881 C1,40.4769347 2.39694022,41.75407 4.12000376,41.75407 L10.8799962,41.75407 C12.6031067,41.75407 14,40.4769347 14,38.9016881 L14,37 L1,37 Z" id="路径" fill="#9CCAFF"></path>
                                <polygon id="路径" fill="#9CCAFF" points="0.91953618 9.52703479 7.41953618 0.0189807245 13.9195362 9.52703479"></polygon>
                            </g>
                        </g>
                    </g>
                </g>
                <g id="私有化部署服务_export" transform="translate(48.000000, 48.000000)">
                    <g id="私有化部署服务">
                        <g transform="translate(2.000000, 2.000000)" fill-rule="nonzero">
                            <polygon id="路径" fill="#007CFF" points="13.1908059 13.1908059 30.7556762 13.1908059 30.7556762 30.7556762 13.1908059 30.7556762"></polygon>
                            <path d="M43.9293289,17.5820235 L43.9293289,13.1908059 L39.5381113,13.1908059 L39.5381113,6.60397952 C39.5381113,5.28661425 38.6598677,4.40837072 37.3425025,4.40837078 L30.7556762,4.40837078 L30.7556762,0.0171531765 L26.3644586,0.0171531765 L26.3644586,4.40837078 L17.5820235,4.40837078 L17.5820235,0.0171531765 L13.1908059,0.0171531765 L13.1908059,4.40837078 L6.60397952,4.40837078 C5.28661425,4.40837078 4.40837072,5.28661431 4.40837078,6.60397952 L4.40837078,13.1908059 L0.0171531765,13.1908059 L0.0171531765,17.5820235 L4.40837078,17.5820235 L4.40837078,26.3644586 L0.0171531765,26.3644586 L0.0171531765,30.7556762 L4.40837078,30.7556762 L4.40837078,37.3425025 C4.40837078,38.6598678 5.28661431,39.5381113 6.60397952,39.5381113 L13.1908059,39.5381113 L13.1908059,43.9293289 L17.5820235,43.9293289 L17.5820235,39.5381113 L26.3644586,39.5381113 L26.3644586,43.9293289 L30.7556762,43.9293289 L30.7556762,39.5381113 L37.3425025,39.5381113 C38.6598678,39.5381113 39.5381113,38.6598677 39.5381113,37.3425025 L39.5381113,30.7556762 L43.9293289,30.7556762 L43.9293289,26.3644586 L39.5381113,26.3644586 L39.5381113,17.5820235 L43.9293289,17.5820235 Z M35.1468937,35.1468937 L8.79958832,35.1468937 L8.79958832,8.79958832 L35.1468937,8.79958832 L35.1468937,35.1468937 Z" id="形状" fill="#9CCAFF"></path>
                        </g>
                    </g>
                </g>
                <g id="重保服务_export" transform="translate(96.000000, 48.000000)">
                    <g id="重保服务">
                        <g transform="translate(4.000000, 1.000000)" fill-rule="nonzero">
                            <path d="M19.6329013,45.7743697 L19.5818537,45.7743697 C13.5174006,45.7743697 0,36.253995 0,24.6202504 L0,8.94864169 C4.44113991,7.81028054 13.5174006,0.0510475852 19.5614347,0.0459428267 L19.5716442,0.0459428267 C25.6105735,0.0459428267 34.6817294,7.81028054 39.2096516,8.94864169 L39.2096516,24.6202504 C39.214755,36.253995 25.6156783,45.7743697 19.6329013,45.7743697 L19.6329013,45.7743697 Z" id="路径" fill="#9CCAFF"></path>
                            <path d="M19.6277965,42.0172674 L19.5869585,42.0172674 C14.5179332,42.0172674 3.22110263,34.0589489 3.22110263,24.3343839 L3.22110263,11.6235352 C6.93226207,10.6689453 14.5179332,3.80814986 19.5716442,3.8030451 L19.5818537,3.8030451 C24.6253551,3.8030451 32.2110263,10.6740501 35.9936523,11.6235352 L35.9936523,24.3394886 C35.9936523,34.0640536 24.6253551,42.0172674 19.6277965,42.0172674 L19.6277965,42.0172674 Z" id="路径" fill="#007CFF"></path>
                            <path d="M19.5869585,6.74849077 L19.5767489,6.74849077 C15.3040661,6.75359553 8.89248935,12.557706 5.75306286,13.3591531 L5.75306286,22.9203658 L19.6073775,22.9203658 L19.6073775,6.75359553 C19.6022727,6.75359553 19.5920632,6.74849077 19.5869585,6.74849077 L19.5869585,6.74849077 Z M19.6073775,22.9254705 L19.6073775,39.066717 L19.6277965,39.066717 C23.8545366,39.066717 33.4616921,32.3386452 33.4616921,24.1148793 L33.4616921,22.9254705 L19.6073775,22.9254705 Z" id="形状" fill="#FFFFFF"></path>
                        </g>
                    </g>
                </g>
            </g>
        </g>
    </g>
</svg>