<?xml version="1.0" encoding="UTF-8"?>
<svg width="40px" height="59px" viewBox="0 0 40 59" version="1.1" xmlns="http://www.w3.org/2000/svg" xmlns:xlink="http://www.w3.org/1999/xlink">
    <!-- Generator: Sketch 62 (91390) - https://sketch.com -->
    <title>编组 23</title>
    <desc>Created with Sketch.</desc>
    <g id="页面-1" stroke="none" stroke-width="1" fill="none" fill-rule="evenodd">
        <g id="首页" transform="translate(-562.000000, -5718.000000)">
            <g id="编组-23" transform="translate(561.000000, 5717.000000)">
                <g id="客服" transform="translate(1.000000, 41.000000)">
                    <g id="编组">
                        <g transform="translate(0.000000, 2.000000)" fill-rule="nonzero">
                            <path d="M18.8403786,12.9497626 C18.4675507,13.0240891 18.1120586,13.1679752 17.7924938,13.3738961 C17.4793149,13.7025597 17.0839185,13.9414637 16.6473038,14.0658359 C16.7055174,13.6749589 16.8993,13.3181861 17.1920438,13.0545392 C17.4371824,12.6803763 17.6137564,12.2655623 17.7135023,11.82951 C17.7121352,11.2096608 18.2133493,10.7059788 18.8331978,10.7042973 C19.4530463,10.7026241 19.9569791,11.203586 19.9589726,11.8234336 C19.9609544,12.4432812 19.4602448,12.9474647 18.8403983,12.9497626 L18.8403786,12.9497626 Z" id="路径" fill="#0093FF"></path>
                            <path d="M16.786224,10.2609948 C16.4138063,10.0141213 16.0003835,9.83557351 15.5653346,9.73372082 C14.9452644,9.73372082 14.4425982,9.23105459 14.4425982,8.61098436 C14.4425982,7.99091413 14.9452644,7.4882479 15.5653346,7.4882479 C16.1854049,7.4882479 16.6880711,7.99091413 16.6880711,8.61098436 C16.7612359,8.98439847 16.9033871,9.34089633 17.1072368,9.66220066 C17.4337971,9.9779052 17.6703369,10.3749235 17.7925135,10.8123979 C17.4043675,10.7504602 17.0498144,10.5555459 16.7895359,10.2610145 L16.7853961,10.2610145 L16.786224,10.2609948 Z" id="路径" fill="#00FF50"></path>
                            <path d="M14.9365959,6.30396624 C14.5981171,3.46884623 11.6623602,1.24748277 8.11036293,1.24748277 C4.32629966,1.24748277 1.24750248,3.76574953 1.24750248,6.86284073 C1.30809376,8.60182849 2.22632464,10.1978295 3.69923657,11.1242636 C3.93819072,11.3003485 4.18820419,11.4609091 4.44773412,11.6049548 L4.14335944,12.8200091 C4.25312357,12.8715793 4.35957585,12.9264614 4.47184359,12.9738721 L6.00875829,12.2054246 C6.23329375,12.2636382 6.46949954,12.3010542 6.70400998,12.3409738 C6.85371343,12.3675869 7.00341688,12.3950279 7.15727986,12.4133219 C8.11571707,12.5341562 9.08818355,12.478346 10.026504,12.248656 C10.055539,12.6644904 10.1314164,13.0757189 10.2526954,13.4745329 C9.55041906,13.6391611 8.83165562,13.7231441 8.11034321,13.7248535 C7.4632378,13.721202 6.81827449,13.6501259 6.18590277,13.5127769 L3.39730635,14.9049953 C3.18048535,15.015902 2.91865799,14.988519 2.72947598,14.8351508 C2.53955003,14.6829994 2.45545853,14.4342806 2.51408752,14.198093 L3.01307275,12.1888062 C1.18452395,11.0259584 0.0548512986,9.02912721 -1.77635684e-14,6.86284073 C-1.77635684e-14,3.07215376 3.63100854,3.94745964e-15 8.11034321,3.94745964e-15 C12.3634274,3.94745964e-15 15.8464278,2.77274686 16.1857346,6.29732283 C15.9903909,6.26725886 15.7935586,6.2478257 15.5961072,6.2391092 C15.3757116,6.24742825 15.1553159,6.26820616 14.9365762,6.30313828 L14.9365959,6.30396624 Z" id="路径" fill="#0093FF"></path>
                            <path d="M12.345981,10.730883 C12.7194117,10.6560313 13.0745286,10.512991 13.3938855,10.3067495 C13.7074917,9.97856482 14.1031708,9.74023438 14.5399034,9.61646561 C14.4803826,10.0060123 14.2875645,10.3628459 13.9943355,10.6261064 C13.7490024,11.0003453 13.5726859,11.4161795 13.4728967,11.8519636 C13.4738065,12.4717035 12.9723928,12.9749697 12.3526537,12.9763482 C11.7329146,12.9777211 11.2292716,12.4766859 11.2274249,11.8569481 C11.2255883,11.2372102 11.7262447,10.7331906 12.345981,10.730883 L12.345981,10.730883 Z" id="路径" fill="#FFD400"></path>
                            <path d="M14.3685744,13.4321097 C14.7395015,13.6807744 15.1520041,13.8604225 15.5861322,13.9643711 C16.0402368,13.9643711 16.4496272,14.2379171 16.6234055,14.657455 C16.7971838,15.0769928 16.7011272,15.5599018 16.3800268,15.8810022 C16.0589264,16.2021025 15.5760175,16.2981591 15.1564796,16.1243808 C14.7369417,15.9506026 14.4633958,15.5412121 14.4633958,15.0871076 C14.3918385,14.713236 14.2507884,14.3561038 14.0475616,14.0342354 C13.7222289,13.7170873 13.487386,13.3188955 13.3672527,12.8807263 C13.7557591,12.9446575 14.1098387,13.1419896 14.3685744,13.4387728 L14.3685744,13.4321097 Z" id="路径" fill="#FF0000"></path>
                        </g>
                    </g>
                </g>
                <rect id="矩形" fill="#000000" fill-rule="nonzero" opacity="0" x="0" y="0" width="20" height="20"></rect>
                <g id="咨询默认" transform="translate(1.000000, 1.000000)" fill="#000000">
                    <g>
                        <path d="M18.2257333,8.86217283 C18.1408667,4.23649638 14.6290333,0.5 10.3166667,0.5 L9.68333333,0.5 C5.37096667,0.5 1.85913333,4.23649638 1.77426667,8.86152616 C1.0168,9.30967292 0.5,10.1367721 0.5,11.0932065 L0.5,12.3865593 C0.5,13.8131275 1.6362,14.973265 3.03333333,14.973265 C4.43046667,14.973265 5.56666667,13.8131275 5.56666667,12.3865593 L5.56666667,11.0932065 C5.56465429,9.67544752 4.44583799,8.52325654 3.0574,8.50908751 C3.30503333,4.76159763 6.17846667,1.79335285 9.68333333,1.79335285 L10.3166667,1.79335285 C13.8221667,1.79335285 16.6949667,4.76159763 16.9426,8.50908751 C15.554162,8.52325654 14.4353457,9.67544752 14.4333333,11.0932065 L14.4333333,12.3865593 C14.4333333,13.554457 15.1996667,14.5322317 16.2421333,14.8523365 C15.301309,16.1168384 13.957841,17.0065006 12.4434,17.3679078 C12.2289836,16.7113579 11.6278093,16.2680292 10.95,16.2666179 C10.0755491,16.2666179 9.36666667,16.9904351 9.36666667,17.8833089 C9.36666667,18.7761828 10.0755491,19.5 10.95,19.5 C11.498471,19.4992549 12.0071702,19.2075883 12.2933,18.7298084 C14.6035184,18.3171317 16.6181827,16.8857905 17.8001333,14.817416 C18.7868667,14.4643307 19.5,13.5137163 19.5,12.3865593 L19.5,11.0932065 C19.5,10.1367721 18.9832,9.30967292 18.2257333,8.86217283 Z M4.3,11.0932065 L4.3,12.3865593 C4.3,13.0998434 3.7319,13.6799122 3.03333333,13.6799122 C2.33476667,13.6799122 1.76666667,13.0998434 1.76666667,12.3865593 L1.76666667,11.0932065 C1.76666667,10.3799224 2.33476667,9.79985365 3.03333333,9.79985365 C3.7319,9.79985365 4.3,10.3799224 4.3,11.0932065 Z M18.2333333,12.3865593 C18.2333333,13.0797965 17.695,13.6430516 17.0236667,13.6740921 L16.9742667,13.6501651 C16.9698333,13.6605119 16.9628667,13.6689187 16.9584333,13.6786188 C16.2625838,13.6740008 15.7006812,13.0970837 15.7,12.3865593 L15.7,11.0932065 C15.7,10.3799224 16.2681,9.79985365 16.9666667,9.79985365 C17.6652333,9.79985365 18.2333333,10.3799224 18.2333333,11.0932065 L18.2333333,12.3865593 Z" fill-rule="nonzero"></path>
                    </g>
                </g>
                <g id="咨询选中" transform="translate(21.000000, 1.000000)" fill="#007CFF">
                    <g>
                        <g fill-rule="nonzero">
                            <path d="M18.2257333,8.86217283 C18.1408667,4.23649638 14.6290333,0.5 10.3166667,0.5 L9.68333333,0.5 C5.37096667,0.5 1.85913333,4.23649638 1.77426667,8.86152616 C1.0168,9.30967292 0.5,10.1367721 0.5,11.0932065 L0.5,12.3865593 C0.5,13.8131275 1.6362,14.973265 3.03333333,14.973265 C4.43046667,14.973265 5.56666667,13.8131275 5.56666667,12.3865593 L5.56666667,11.0932065 C5.56465429,9.67544752 4.44583799,8.52325654 3.0574,8.50908751 C3.30503333,4.76159763 6.17846667,1.79335285 9.68333333,1.79335285 L10.3166667,1.79335285 C13.8221667,1.79335285 16.6949667,4.76159763 16.9426,8.50908751 C15.554162,8.52325654 14.4353457,9.67544752 14.4333333,11.0932065 L14.4333333,12.3865593 C14.4333333,13.554457 15.1996667,14.5322317 16.2421333,14.8523365 C15.301309,16.1168384 13.957841,17.0065006 12.4434,17.3679078 C12.2289836,16.7113579 11.6278093,16.2680292 10.95,16.2666179 C10.0755491,16.2666179 9.36666667,16.9904351 9.36666667,17.8833089 C9.36666667,18.7761828 10.0755491,19.5 10.95,19.5 C11.498471,19.4992549 12.0071702,19.2075883 12.2933,18.7298084 C14.6035184,18.3171317 16.6181827,16.8857905 17.8001333,14.817416 C18.7868667,14.4643307 19.5,13.5137163 19.5,12.3865593 L19.5,11.0932065 C19.5,10.1367721 18.9832,9.30967292 18.2257333,8.86217283 Z M4.3,11.0932065 L4.3,12.3865593 C4.3,13.0998434 3.7319,13.6799122 3.03333333,13.6799122 C2.33476667,13.6799122 1.76666667,13.0998434 1.76666667,12.3865593 L1.76666667,11.0932065 C1.76666667,10.3799224 2.33476667,9.79985365 3.03333333,9.79985365 C3.7319,9.79985365 4.3,10.3799224 4.3,11.0932065 Z M18.2333333,12.3865593 C18.2333333,13.0797965 17.695,13.6430516 17.0236667,13.6740921 L16.9742667,13.6501651 C16.9698333,13.6605119 16.9628667,13.6689187 16.9584333,13.6786188 C16.2625838,13.6740008 15.7006812,13.0970837 15.7,12.3865593 L15.7,11.0932065 C15.7,10.3799224 16.2681,9.79985365 16.9666667,9.79985365 C17.6652333,9.79985365 18.2333333,10.3799224 18.2333333,11.0932065 L18.2333333,12.3865593 Z"></path>
                        </g>
                    </g>
                </g>
                <g id="热线默认" transform="translate(1.000000, 21.000000)" fill="#000000">
                    <g>
                        <path d="M8.58787296,11.32 C7.91145794,10.6771369 7.31999771,9.95044152 6.82787343,9.15758333 C8.28422722,8.50285415 9.23710196,7.149625 9.23710196,5.50970832 C9.23687279,3.18068749 7.35656079,1.29166667 5.03510307,1.29166667 C2.6536037,1.29166667 0.833333333,3.05510417 0.833333333,5.50970832 C0.833333333,8.909625 2.60708287,12.5685 5.14349887,14.9555 C7.29216498,16.9776667 10.7076641,18.4303542 14.0264549,18.7060417 C14.0443298,18.7076459 14.062434,18.7083333 14.0805382,18.7083333 L14.9648921,18.7083333 C15.3270585,18.7083333 15.6206523,18.4147394 15.6206523,18.0525729 C15.6206523,17.6904064 15.3270585,17.3968125 14.9648921,17.3968125 L14.1082673,17.3968125 C11.0860181,17.1394583 7.96316478,15.8084583 6.04183196,14.0003333 C3.75566589,11.8484583 2.14439549,8.5253125 2.14439549,5.50970832 C2.14439549,3.78866665 3.36860349,2.60318749 5.03510307,2.60318749 C6.63101933,2.60318749 7.92581064,3.90370832 7.92581064,5.50970832 C7.92581064,6.80541665 7.04718587,7.82979165 5.71274872,8.15979167 C5.5177724,8.20792382 5.35560965,8.34276023 5.27270791,8.52568039 C5.18980617,8.70860055 5.19531062,8.91942591 5.28764466,9.09777083 C5.88004033,10.2431458 6.70641511,11.3413125 7.68472737,12.2708125 C8.78610208,13.3169583 10.0467476,14.120875 11.3811847,14.5945625 C11.5651303,14.6599453 11.7686474,14.6399265 11.9363282,14.5399561 C12.1040089,14.4399858 12.2183974,14.270471 12.2483512,14.0775625 C12.4729344,12.6361042 13.5722466,11.6277708 14.9648921,11.6277708 C16.5605792,11.6277708 17.8555997,12.9285208 17.8555997,14.5342917 C17.8555997,15.0838334 17.7043497,15.6090834 17.422704,16.065125 C17.2443959,16.3723455 17.3430692,16.765681 17.6452778,16.9523576 C17.9474864,17.1390341 18.3433828,17.0511982 18.538287,16.7542292 C18.9502287,16.0871354 19.1678479,15.3183253 19.1666667,14.5342917 C19.1666667,12.2055 17.2861207,10.31625 14.9648921,10.31625 C13.1801426,10.31625 11.7162263,11.4416875 11.1488098,13.0848125 C10.23856,12.66475 9.37047693,12.0634167 8.58787296,11.32 Z" fill-rule="nonzero"></path>
                    </g>
                </g>
                <g id="热线选中" transform="translate(21.000000, 21.000000)" fill="#007CFF" fill-rule="nonzero">
                    <path d="M8.58787296,11.32 C7.91145794,10.6771369 7.31999771,9.95044152 6.82787343,9.15758333 C8.28422722,8.50285415 9.23710196,7.149625 9.23710196,5.50970832 C9.23687279,3.18068749 7.35656079,1.29166667 5.03510307,1.29166667 C2.6536037,1.29166667 0.833333333,3.05510417 0.833333333,5.50970832 C0.833333333,8.909625 2.60708287,12.5685 5.14349887,14.9555 C7.29216498,16.9776667 10.7076641,18.4303542 14.0264549,18.7060417 C14.0443298,18.7076459 14.062434,18.7083333 14.0805382,18.7083333 L14.9648921,18.7083333 C15.3270585,18.7083333 15.6206523,18.4147394 15.6206523,18.0525729 C15.6206523,17.6904064 15.3270585,17.3968125 14.9648921,17.3968125 L14.1082673,17.3968125 C11.0860181,17.1394583 7.96316478,15.8084583 6.04183196,14.0003333 C3.75566589,11.8484583 2.14439549,8.5253125 2.14439549,5.50970832 C2.14439549,3.78866665 3.36860349,2.60318749 5.03510307,2.60318749 C6.63101933,2.60318749 7.92581064,3.90370832 7.92581064,5.50970832 C7.92581064,6.80541665 7.04718587,7.82979165 5.71274872,8.15979167 C5.5177724,8.20792382 5.35560965,8.34276023 5.27270791,8.52568039 C5.18980617,8.70860055 5.19531062,8.91942591 5.28764466,9.09777083 C5.88004033,10.2431458 6.70641511,11.3413125 7.68472737,12.2708125 C8.78610208,13.3169583 10.0467476,14.120875 11.3811847,14.5945625 C11.5651303,14.6599453 11.7686474,14.6399265 11.9363282,14.5399561 C12.1040089,14.4399858 12.2183974,14.270471 12.2483512,14.0775625 C12.4729344,12.6361042 13.5722466,11.6277708 14.9648921,11.6277708 C16.5605792,11.6277708 17.8555997,12.9285208 17.8555997,14.5342917 C17.8555997,15.0838334 17.7043497,15.6090834 17.422704,16.065125 C17.2443959,16.3723455 17.3430692,16.765681 17.6452778,16.9523576 C17.9474864,17.1390341 18.3433828,17.0511982 18.538287,16.7542292 C18.9502287,16.0871354 19.1678479,15.3183253 19.1666667,14.5342917 C19.1666667,12.2055 17.2861207,10.31625 14.9648921,10.31625 C13.1801426,10.31625 11.7162263,11.4416875 11.1488098,13.0848125 C10.23856,12.66475 9.37047693,12.0634167 8.58787296,11.32 Z"></path>
                </g>
            </g>
        </g>
    </g>
</svg>