<?xml version="1.0" encoding="UTF-8"?>
<svg width="150px" height="107px" viewBox="0 0 150 107" version="1.1" xmlns="http://www.w3.org/2000/svg" xmlns:xlink="http://www.w3.org/1999/xlink">
    <!-- Generator: Sketch 62 (91390) - https://sketch.com -->
    <title>ip</title>
    <desc>Created with Sketch.</desc>
    <defs>
        <rect id="path-1" x="0" y="0" width="150" height="128"></rect>
        <path d="M31.2431903,37.2823847 L42.2405406,39.8496575 C45.5327307,40.6182017 47.859404,43.5564812 47.8527882,46.9371811 C47.8461614,50.3234521 45.5174706,53.2630391 42.2225725,54.0443974 L31.1839136,56.6621257 C25.8548993,57.9258581 20.5104221,54.630296 19.2466897,49.3012817 C19.0673965,48.5452227 18.977586,47.770711 18.9791066,46.9936854 C18.9899064,41.474998 23.4724414,37.0099729 28.9911288,37.0207727 C29.7493099,37.0222564 30.504859,37.1100252 31.2431903,37.2823847 Z" id="path-3"></path>
        <filter x="-13.8%" y="-5.6%" width="127.5%" height="111.0%" filterUnits="objectBoundingBox" id="filter-4">
            <feGaussianBlur stdDeviation="4" in="SourceAlpha" result="shadowBlurInner1"></feGaussianBlur>
            <feOffset dx="0" dy="0" in="shadowBlurInner1" result="shadowOffsetInner1"></feOffset>
            <feComposite in="shadowOffsetInner1" in2="SourceAlpha" operator="arithmetic" k2="-1" k3="1" result="shadowInnerInner1"></feComposite>
            <feColorMatrix values="0 0 0 0 0.980392157   0 0 0 0 0.901960784   0 0 0 0 0.137254902  0 0 0 0.501638986 0" type="matrix" in="shadowInnerInner1"></feColorMatrix>
        </filter>
        <path d="M26.414981,11.8772783 L47.3931615,17.5471955 C52.2402434,18.8572496 55.6085667,23.252363 55.6134713,28.273361 C55.6183721,33.2904469 52.2515469,37.6847801 47.4060291,38.9855999 L26.4679437,44.6066041 C17.4108307,47.0380618 8.09750396,41.666907 5.6660462,32.609794 C5.28204183,31.1793883 5.08683138,29.7048895 5.08538466,28.2238367 C5.0762588,18.8814068 12.6423966,11.3004731 21.9848264,11.2913472 C23.4809582,11.2898858 24.970672,11.4869149 26.414981,11.8772783 Z" id="path-5"></path>
        <filter x="-7.9%" y="2.7%" width="115.8%" height="94.7%" filterUnits="objectBoundingBox" id="filter-6">
            <feGaussianBlur stdDeviation="4" in="SourceAlpha" result="shadowBlurInner1"></feGaussianBlur>
            <feOffset dx="0" dy="0" in="shadowBlurInner1" result="shadowOffsetInner1"></feOffset>
            <feComposite in="shadowOffsetInner1" in2="SourceAlpha" operator="arithmetic" k2="-1" k3="1" result="shadowInnerInner1"></feComposite>
            <feColorMatrix values="0 0 0 0 0.980392157   0 0 0 0 0.901960784   0 0 0 0 0.137254902  0 0 0 0.501638986 0" type="matrix" in="shadowInnerInner1"></feColorMatrix>
        </filter>
        <path d="M31.2431903,37.2823847 L42.2405406,39.8496575 C45.5327307,40.6182017 47.859404,43.5564812 47.8527882,46.9371811 C47.8461614,50.3234521 45.5174706,53.2630391 42.2225725,54.0443974 L31.1839136,56.6621257 C25.8548993,57.9258581 20.5104221,54.630296 19.2466897,49.3012817 C19.0673965,48.5452227 18.977586,47.770711 18.9791066,46.9936854 C18.9899064,41.474998 23.4724414,37.0099729 28.9911288,37.0207727 C29.7493099,37.0222564 30.504859,37.1100252 31.2431903,37.2823847 Z" id="path-7"></path>
        <filter x="-13.8%" y="-5.6%" width="127.5%" height="111.0%" filterUnits="objectBoundingBox" id="filter-8">
            <feGaussianBlur stdDeviation="4" in="SourceAlpha" result="shadowBlurInner1"></feGaussianBlur>
            <feOffset dx="0" dy="0" in="shadowBlurInner1" result="shadowOffsetInner1"></feOffset>
            <feComposite in="shadowOffsetInner1" in2="SourceAlpha" operator="arithmetic" k2="-1" k3="1" result="shadowInnerInner1"></feComposite>
            <feColorMatrix values="0 0 0 0 0.980392157   0 0 0 0 0.901960784   0 0 0 0 0.137254902  0 0 0 0.501638986 0" type="matrix" in="shadowInnerInner1"></feColorMatrix>
        </filter>
        <path d="M26.414981,11.8772783 L47.3931615,17.5471955 C52.2402434,18.8572496 55.6085667,23.252363 55.6134713,28.273361 C55.6183721,33.2904469 52.2515469,37.6847801 47.4060291,38.9855999 L26.4679437,44.6066041 C17.4108307,47.0380618 8.09750396,41.666907 5.6660462,32.609794 C5.28204183,31.1793883 5.08683138,29.7048895 5.08538466,28.2238367 C5.0762588,18.8814068 12.6423966,11.3004731 21.9848264,11.2913472 C23.4809582,11.2898858 24.970672,11.4869149 26.414981,11.8772783 Z" id="path-9"></path>
        <filter x="-7.9%" y="2.7%" width="115.8%" height="94.7%" filterUnits="objectBoundingBox" id="filter-10">
            <feGaussianBlur stdDeviation="4" in="SourceAlpha" result="shadowBlurInner1"></feGaussianBlur>
            <feOffset dx="0" dy="0" in="shadowBlurInner1" result="shadowOffsetInner1"></feOffset>
            <feComposite in="shadowOffsetInner1" in2="SourceAlpha" operator="arithmetic" k2="-1" k3="1" result="shadowInnerInner1"></feComposite>
            <feColorMatrix values="0 0 0 0 0.980392157   0 0 0 0 0.901960784   0 0 0 0 0.137254902  0 0 0 0.501638986 0" type="matrix" in="shadowInnerInner1"></feColorMatrix>
        </filter>
        <linearGradient x1="50%" y1="0%" x2="50%" y2="100%" id="linearGradient-11">
            <stop stop-color="#F6B915" offset="0%"></stop>
            <stop stop-color="#FFB200" offset="100%"></stop>
        </linearGradient>
        <path d="M21.7654445,52.7550448 C21.1662807,52.7550448 20.6805625,52.2693266 20.6805625,51.6701628 L20.6805625,51.6701628 L20.6805625,50.0322037 C20.6805625,48.7504934 21.5661537,47.675624 22.7588211,47.3861104 C22.8523156,46.130971 22.9508623,44.8564931 23.0537418,43.5654563 C23.1544122,42.3021418 23.2330416,41.0136563 23.2896299,39.6999999 C23.3799611,37.6037017 21.7537791,35.8311107 19.6574796,35.7408084 C19.6030089,35.738462 19.5484941,35.7372884 19.4939729,35.7372884 C17.3957293,35.7372884 15.6947669,37.4382509 15.6947669,39.5364944 C15.6947669,39.5910156 15.6959405,39.6455305 15.6983158,39.6999999 C15.7549042,41.0136563 15.8335335,42.3021418 15.9342039,43.5654563 C16.0370834,44.8564931 16.1356302,46.130971 16.2298441,47.38889 C17.4217983,47.6756315 18.3073832,48.7504979 18.3073832,50.0322037 L18.3073832,51.6701628 C18.3073832,52.2693266 17.821665,52.7550448 17.2225013,52.7550448 L7.59144312,52.7550448 C5.35541339,52.755037 3.34849915,51.3829667 2.53693543,49.2994137 C0.845645145,44.9573109 0,40.5500542 0,36.0776435 C0,26.9956451 1.59070011,17.4838565 4.77210032,7.54227773 C6.210001,3.04895747 10.3869656,8.66642852e-16 15.1047495,0 L23.8831956,0 C28.6009771,7.94330286e-07 32.7779395,3.04895655 34.2158439,7.54227302 C37.3972451,17.4838535 38.9879458,26.9956437 38.9879458,36.0776435 C38.9879458,40.5500559 38.1423,44.9573144 36.4510083,49.2994188 C35.6394421,51.3829733 33.6325257,52.7550448 31.3964937,52.7550448 Z" id="path-12"></path>
        <path d="M21.7654445,52.7550448 C21.1662807,52.7550448 20.6805625,52.2693266 20.6805625,51.6701628 L20.6805625,51.6701628 L20.6805625,50.0322037 C20.6805625,48.7504934 21.5661537,47.675624 22.7588211,47.3861104 C22.8523156,46.130971 22.9508623,44.8564931 23.0537418,43.5654563 C23.1544122,42.3021418 23.2330416,41.0136563 23.2896299,39.6999999 C23.3799611,37.6037017 21.7537791,35.8311107 19.6574796,35.7408084 C19.6030089,35.738462 19.5484941,35.7372884 19.4939729,35.7372884 C17.3957293,35.7372884 15.6947669,37.4382509 15.6947669,39.5364944 C15.6947669,39.5910156 15.6959405,39.6455305 15.6983158,39.6999999 C15.7549042,41.0136563 15.8335335,42.3021418 15.9342039,43.5654563 C16.0370834,44.8564931 16.1356302,46.130971 16.2298441,47.38889 C17.4217983,47.6756315 18.3073832,48.7504979 18.3073832,50.0322037 L18.3073832,51.6701628 C18.3073832,52.2693266 17.821665,52.7550448 17.2225013,52.7550448 L7.59144312,52.7550448 C5.35541339,52.755037 3.34849915,51.3829667 2.53693543,49.2994137 C0.845645145,44.9573109 0,40.5500542 0,36.0776435 C0,26.9956451 1.59070011,17.4838565 4.77210032,7.54227773 C6.210001,3.04895747 10.3869656,8.66642852e-16 15.1047495,0 L23.8831956,0 C28.6009771,7.94330286e-07 32.7779395,3.04895655 34.2158439,7.54227302 C37.3972451,17.4838535 38.9879458,26.9956437 38.9879458,36.0776435 C38.9879458,40.5500559 38.1423,44.9573144 36.4510083,49.2994188 C35.6394421,51.3829733 33.6325257,52.7550448 31.3964937,52.7550448 Z" id="path-14"></path>
        <filter x="-6.4%" y="-4.7%" width="112.8%" height="109.5%" filterUnits="objectBoundingBox" id="filter-15">
            <feGaussianBlur stdDeviation="2.5" in="SourceAlpha" result="shadowBlurInner1"></feGaussianBlur>
            <feOffset dx="0" dy="0" in="shadowBlurInner1" result="shadowOffsetInner1"></feOffset>
            <feComposite in="shadowOffsetInner1" in2="SourceAlpha" operator="arithmetic" k2="-1" k3="1" result="shadowInnerInner1"></feComposite>
            <feColorMatrix values="0 0 0 0 0.980392157   0 0 0 0 0.901960784   0 0 0 0 0.137254902  0 0 0 1 0" type="matrix" in="shadowInnerInner1"></feColorMatrix>
        </filter>
        <filter x="-160.0%" y="-21.7%" width="420.0%" height="143.5%" filterUnits="objectBoundingBox" id="filter-16">
            <feGaussianBlur stdDeviation="2.71220492" in="SourceGraphic"></feGaussianBlur>
        </filter>
        <filter x="-34.3%" y="-14.3%" width="168.6%" height="128.6%" filterUnits="objectBoundingBox" id="filter-17">
            <feGaussianBlur stdDeviation="0.813661477" in="SourceGraphic"></feGaussianBlur>
        </filter>
        <filter x="-34.3%" y="-14.3%" width="168.6%" height="128.6%" filterUnits="objectBoundingBox" id="filter-18">
            <feGaussianBlur stdDeviation="0.813661477" in="SourceGraphic"></feGaussianBlur>
        </filter>
        <path d="M2.70668368,-4.35306354e-14 C9.81799178,3.10825378 16.8186322,4.65221244 23.7303697,4.65221244 C30.5131808,4.65221244 37.2686285,3.16541803 44.0216942,0.174450513 L44.3771167,0.015642181 L47.1542782,6.22558654 C39.4266434,9.70863567 31.6099007,11.459315 23.7303697,11.459315 C15.9876976,11.459315 8.19877721,9.76904695 0.384337205,6.40787911 L3.85427501e-14,6.24122872 L2.70668368,-4.35306354e-14 Z" id="path-19"></path>
        <linearGradient x1="50%" y1="0%" x2="50%" y2="100%" id="linearGradient-21">
            <stop stop-color="#F6B915" offset="0%"></stop>
            <stop stop-color="#FFB200" offset="100%"></stop>
        </linearGradient>
        <path d="M46.6160221,0 C71.5557228,0.343606314 93.2320442,17.6534372 93.2320442,42.5142796 C93.2320442,62.1093197 87.3094373,76.2974774 46.6160221,76.5799037 C4.77340774,76.5799037 0,62.3072494 0,42.5142796 C0,17.4023176 21.3441075,0 46.6160221,0 Z" id="path-22"></path>
        <filter x="-6.4%" y="-7.8%" width="112.9%" height="115.7%" filterUnits="objectBoundingBox" id="filter-23">
            <feGaussianBlur stdDeviation="4.5" in="SourceAlpha" result="shadowBlurInner1"></feGaussianBlur>
            <feOffset dx="0" dy="3" in="shadowBlurInner1" result="shadowOffsetInner1"></feOffset>
            <feComposite in="shadowOffsetInner1" in2="SourceAlpha" operator="arithmetic" k2="-1" k3="1" result="shadowInnerInner1"></feComposite>
            <feColorMatrix values="0 0 0 0 0.980392157   0 0 0 0 0.901960784   0 0 0 0 0.137254902  0 0 0 1 0" type="matrix" in="shadowInnerInner1"></feColorMatrix>
        </filter>
        <path d="M46.0872872,71.4745768 C18.8476411,71.3258625 12.1999641,63.8168336 13.7782588,49.153616 L13.8105228,48.8483315 C14.324863,43.8940658 14.2491781,40.4840179 17.8875078,34.7744785 C21.5751141,28.9876105 31.7204682,23.8931392 46.6157509,23.8248589 C61.511576,23.8931392 71.6569301,28.9876105 75.3445364,34.7744785 C79.0571177,40.6005392 78.9025452,44.0322937 79.4537854,49.153616 C81.0162972,63.6702015 74.516534,71.1749665 47.9557811,71.4679075 L46.0872872,71.4745768 Z" id="path-24"></path>
        <filter x="-6.8%" y="-9.4%" width="113.6%" height="118.9%" filterUnits="objectBoundingBox" id="filter-25">
            <feGaussianBlur stdDeviation="4.5" in="SourceAlpha" result="shadowBlurInner1"></feGaussianBlur>
            <feOffset dx="0" dy="0" in="shadowBlurInner1" result="shadowOffsetInner1"></feOffset>
            <feComposite in="shadowOffsetInner1" in2="SourceAlpha" operator="arithmetic" k2="-1" k3="1" result="shadowInnerInner1"></feComposite>
            <feColorMatrix values="0 0 0 0 1   0 0 0 0 0.71731209   0 0 0 0 0.591673018  0 0 0 1 0" type="matrix" in="shadowInnerInner1"></feColorMatrix>
        </filter>
        <ellipse id="path-26" cx="6.82894454" cy="15.2171157" rx="6.78051231" ry="6.80710255"></ellipse>
        <ellipse id="path-27" cx="52.5974026" cy="15.2171157" rx="6.78051231" ry="6.80710255"></ellipse>
        <path d="M0.395529884,4.93570877 C0.395529884,2.52914436 1.51375933,0.192070878 4.37908086,0.192070878 C7.2444024,0.192070878 8.18558513,2.52914436 8.18558513,4.93570877 C8.18558513,7.34227317 8.17253446,12.3566892 4.37908086,12.3566892 C0.585627268,12.3566892 0.395529884,7.34227317 0.395529884,4.93570877 Z" id="path-28"></path>
        <path d="M4.37908086,0.192070878 C7.05119877,0.192070878 8.04991229,2.22460047 8.17244633,4.45054047 C6.81043228,3.83185841 5.44990522,3.52236043 4.09090909,3.52236043 C2.87007818,3.52236043 1.64801181,3.77212591 0.424709985,4.27165687 C0.61734728,2.11678833 1.77879753,0.192070878 4.37908086,0.192070878 Z" id="path-30"></path>
        <filter x="-60.0%" y="-59.8%" width="220.0%" height="219.5%" filterUnits="objectBoundingBox" id="filter-32">
            <feGaussianBlur stdDeviation="0.813661477" in="SourceGraphic"></feGaussianBlur>
        </filter>
        <filter x="-60.0%" y="-59.8%" width="220.0%" height="219.5%" filterUnits="objectBoundingBox" id="filter-33">
            <feGaussianBlur stdDeviation="0.813661477" in="SourceGraphic"></feGaussianBlur>
        </filter>
        <path d="M17.9683576,0.680710255 C18.224748,0.680710255 18.4750953,0.706685151 18.716931,0.756156698 C23.8789359,1.30826838 28.4336509,2.41755601 32.3808219,4.08426153 C35.9967352,5.61109243 38.8254213,7.36356974 40.8668802,9.34169347 L41.0220994,9.49405309 C41.406449,9.87990987 41.406449,10.5055073 41.0220994,10.8913641 C40.6587194,11.2561692 40.0755516,11.2748165 39.689782,10.9339677 C38.1008992,9.53008955 35.5515706,8.15446785 32.0417963,6.80710255 C30.3900575,6.17301746 27.8342119,5.74117732 24.3742596,5.51158214 L24.3742593,5.51158769 C22.8387644,5.40969547 21.3322553,5.96478924 20.2299673,7.03860847 C19.4567203,7.79188486 18.7028504,8.16852306 17.9683576,8.16852306 C15.9087322,8.16852306 14.2390758,6.49231907 14.2390758,4.42461666 C14.2390758,2.35691425 15.9087322,0.680710255 17.9683576,0.680710255 Z" id="path-34"></path>
        <filter x="-5.5%" y="-14.3%" width="111.1%" height="128.6%" filterUnits="objectBoundingBox" id="filter-35">
            <feGaussianBlur stdDeviation="1" in="SourceAlpha" result="shadowBlurInner1"></feGaussianBlur>
            <feOffset dx="1" dy="1" in="shadowBlurInner1" result="shadowOffsetInner1"></feOffset>
            <feComposite in="shadowOffsetInner1" in2="SourceAlpha" operator="arithmetic" k2="-1" k3="1" result="shadowInnerInner1"></feComposite>
            <feColorMatrix values="0 0 0 0 0.980392157   0 0 0 0 0.901960784   0 0 0 0 0.137254902  0 0 0 0.601207386 0" type="matrix" in="shadowInnerInner1"></feColorMatrix>
        </filter>
        <path d="M55.6002009,0.680710255 C55.8565913,0.680710255 56.1069386,0.706685151 56.3487743,0.756156698 C61.5107792,1.30826838 66.0654942,2.41755601 70.0126652,4.08426153 C73.6285785,5.61109243 76.4572646,7.36356974 78.4987235,9.34169347 L78.6539427,9.49405309 C79.0382923,9.87990987 79.0382923,10.5055073 78.6539427,10.8913641 C78.2905627,11.2561692 77.7073949,11.2748165 77.3216253,10.9339677 C75.7327425,9.53008955 73.1834139,8.15446785 69.6736396,6.80710255 C68.0219008,6.17301746 65.4660552,5.74117732 62.0061029,5.51158214 L62.0061026,5.51158769 C60.4706077,5.40969547 58.9640986,5.96478924 57.8618106,7.03860847 C57.0885636,7.79188486 56.3346937,8.16852306 55.6002009,8.16852306 C53.5405755,8.16852306 51.8709191,6.49231907 51.8709191,4.42461666 C51.8709191,2.35691425 53.5405755,0.680710255 55.6002009,0.680710255 Z" id="path-36"></path>
        <filter x="-5.5%" y="-14.3%" width="111.1%" height="128.6%" filterUnits="objectBoundingBox" id="filter-37">
            <feGaussianBlur stdDeviation="1" in="SourceAlpha" result="shadowBlurInner1"></feGaussianBlur>
            <feOffset dx="1" dy="1" in="shadowBlurInner1" result="shadowOffsetInner1"></feOffset>
            <feComposite in="shadowOffsetInner1" in2="SourceAlpha" operator="arithmetic" k2="-1" k3="1" result="shadowInnerInner1"></feComposite>
            <feColorMatrix values="0 0 0 0 0.980392157   0 0 0 0 0.901960784   0 0 0 0 0.137254902  0 0 0 0.601207386 0" type="matrix" in="shadowInnerInner1"></feColorMatrix>
        </filter>
        <linearGradient x1="50%" y1="0%" x2="50%" y2="100%" id="linearGradient-38">
            <stop stop-color="#F6B915" offset="0%"></stop>
            <stop stop-color="#FFB200" offset="100%"></stop>
        </linearGradient>
        <path d="M25.139234,4.69485644 C26.5909813,10.1608681 25.9090909,15.1304787 23.4794544,19.007793 C21.0498178,22.8851074 11.9318182,22.5882353 7.96596326,22.5882353 C4.00010833,22.5882353 0.204586107,21.1450811 0.486690105,16.3536373 C0.768794104,11.5621934 6.77126177,10.9762711 9.79821432,9.88763801 C14.1888936,8.30854523 11.8177643,5.33131416 12.0605404,0.614573171 C16.421406,0.710063807 20.2522756,0.493526218 23.6221829,-0.00310936613 C24.142552,1.11739755 24.5860093,2.61189589 25.139234,4.69485644 Z" id="path-39"></path>
        <filter x="-15.7%" y="-17.7%" width="131.5%" height="135.4%" filterUnits="objectBoundingBox" id="filter-41">
            <feGaussianBlur stdDeviation="2.5" in="SourceAlpha" result="shadowBlurInner1"></feGaussianBlur>
            <feOffset dx="0" dy="3" in="shadowBlurInner1" result="shadowOffsetInner1"></feOffset>
            <feComposite in="shadowOffsetInner1" in2="SourceAlpha" operator="arithmetic" k2="-1" k3="1" result="shadowInnerInner1"></feComposite>
            <feColorMatrix values="0 0 0 0 0.980392157   0 0 0 0 0.901960784   0 0 0 0 0.137254902  0 0 0 1 0" type="matrix" in="shadowInnerInner1"></feColorMatrix>
        </filter>
        <filter x="-20.5%" y="-23.0%" width="141.0%" height="145.9%" filterUnits="objectBoundingBox" id="filter-42">
            <feGaussianBlur stdDeviation="2.18181818" in="SourceGraphic"></feGaussianBlur>
        </filter>
        <linearGradient x1="50%" y1="0%" x2="50%" y2="100%" id="linearGradient-43">
            <stop stop-color="#F6B915" offset="0%"></stop>
            <stop stop-color="#FFB200" offset="100%"></stop>
        </linearGradient>
        <path d="M47.2654601,0.370958308 L47.5457709,0.595259503 C47.8430171,0.825177931 48.1543406,1.04130084 48.4791971,1.24228982 C51.6925005,3.23036757 54.9015846,5.00256463 58.1064493,6.55888099 C55.0556801,13.5294319 48.7136278,26.4152383 40.8591554,35.2105373 C30.6604669,46.6308477 18.5231302,51.3496917 14.0568918,51.9658197 C6.47531704,53.0117156 0.936358858,46.904279 0.554923743,42.3097952 C0.11848146,37.052736 1.77441663,34.1113 5.52272926,33.4854873 C4.03608731,30.253088 4.15626448,27.2290857 5.88326077,24.4134803 C7.61025706,21.5978749 10.1676246,20.4440358 13.5553633,20.951963 C13.2985304,14.8120021 21.1050007,17.3318845 23.9316429,20.2849288 C31.8444707,18.8902538 39.6224098,12.2522636 47.2654601,0.370958308 Z M15.4657154,25.9618567 C13.638853,25.5045841 11.7886428,26.6206622 11.3331535,28.454688 C10.8776671,30.2887146 11.9893855,32.1461805 13.8162472,32.603456 C15.6431096,33.0607287 17.4933198,31.9446506 17.948809,30.1106247 C18.4042955,28.2765981 17.2925771,26.4191322 15.4657154,25.9618567 Z" id="path-44"></path>
        <filter x="-10.4%" y="-10.9%" width="120.9%" height="122.4%" filterUnits="objectBoundingBox" id="filter-46">
            <feGaussianBlur stdDeviation="4.5" in="SourceAlpha" result="shadowBlurInner1"></feGaussianBlur>
            <feOffset dx="0" dy="3" in="shadowBlurInner1" result="shadowOffsetInner1"></feOffset>
            <feComposite in="shadowOffsetInner1" in2="SourceAlpha" operator="arithmetic" k2="-1" k3="1" result="shadowInnerInner1"></feComposite>
            <feColorMatrix values="0 0 0 0 0.980392157   0 0 0 0 0.901960784   0 0 0 0 0.137254902  0 0 0 1 0" type="matrix" in="shadowInnerInner1"></feColorMatrix>
        </filter>
        <filter x="-9.6%" y="-9.0%" width="119.2%" height="118.0%" filterUnits="objectBoundingBox" id="filter-47">
            <feGaussianBlur stdDeviation="2.18181818" in="SourceGraphic"></feGaussianBlur>
        </filter>
        <linearGradient x1="50%" y1="0%" x2="50%" y2="100%" id="linearGradient-48">
            <stop stop-color="#F6B915" offset="0%"></stop>
            <stop stop-color="#FFB200" offset="100%"></stop>
        </linearGradient>
        <path d="M17.3863636,0 C26.9885871,0 34.7727273,7.81466619 34.7727273,17.4545455 C34.7727273,21.1834614 33.6079775,24.6392686 31.6237969,27.4752939 C32.3656476,29.972398 33.6428447,31.4910896 35.4545455,32.0327841 C32.6401949,32.2841776 29.9396376,32.1929414 27.3528734,31.7590755 C24.5316295,33.7436398 21.0945678,34.9090909 17.3863636,34.9090909 C7.78414015,34.9090909 0,27.0944247 0,17.4545455 C0,7.81466619 7.78414015,0 17.3863636,0 Z" id="path-49"></path>
        <filter x="-32.4%" y="-32.9%" width="164.9%" height="165.9%" filterUnits="objectBoundingBox" id="filter-50">
            <feGaussianBlur stdDeviation="8.5" in="SourceAlpha" result="shadowBlurInner1"></feGaussianBlur>
            <feOffset dx="0" dy="6" in="shadowBlurInner1" result="shadowOffsetInner1"></feOffset>
            <feComposite in="shadowOffsetInner1" in2="SourceAlpha" operator="arithmetic" k2="-1" k3="1" result="shadowInnerInner1"></feComposite>
            <feColorMatrix values="0 0 0 0 0.980392157   0 0 0 0 0.901960784   0 0 0 0 0.137254902  0 0 0 1 0" type="matrix" in="shadowInnerInner1"></feColorMatrix>
        </filter>
        <linearGradient x1="50%" y1="0%" x2="50%" y2="100%" id="linearGradient-51">
            <stop stop-color="#FFFFFF" stop-opacity="0" offset="0%"></stop>
            <stop stop-color="#FFFFFF" stop-opacity="0.589379371" offset="100%"></stop>
        </linearGradient>
    </defs>
    <g id="页面-1" stroke="none" stroke-width="1" fill="none" fill-rule="evenodd">
        <g id="样式" transform="translate(-1537.000000, -229.000000)">
            <g id="编组-7" transform="translate(1279.000000, 208.000000)">
                <g id="ip" transform="translate(258.000000, 0.000000)">
                    <g id="编组-5" stroke-width="1" fill-rule="evenodd">
                        <g id="编组-5备份-5">
                            <mask id="mask-2" fill="white">
                                <use xlink:href="#path-1"></use>
                            </mask>
                            <g id="矩形"></g>
                            <g id="蜜蜂" mask="url(#mask-2)">
                                <g transform="translate(15.000000, 20.534759)">
                                    <g id="翅膀" transform="translate(20.454545, 51.756670)">
                                        <g id="矩形" transform="translate(33.409300, 46.993685) rotate(-45.000000) translate(-33.409300, -46.993685) ">
                                            <use fill="#FFFFFF" fill-rule="evenodd" xlink:href="#path-3"></use>
                                            <use fill="black" fill-opacity="1" filter="url(#filter-4)" xlink:href="#path-3"></use>
                                        </g>
                                        <g id="矩形" transform="translate(30.342780, 28.223837) rotate(15.000000) translate(-30.342780, -28.223837) ">
                                            <use fill="#FFFFFF" fill-rule="evenodd" xlink:href="#path-5"></use>
                                            <use fill="black" fill-opacity="1" filter="url(#filter-6)" xlink:href="#path-5"></use>
                                        </g>
                                    </g>
                                    <g id="翅膀" transform="translate(102.047024, 85.011572) scale(-1, 1) translate(-102.047024, -85.011572) translate(71.422024, 51.756670)">
                                        <g id="矩形" transform="translate(33.409300, 46.993685) rotate(-45.000000) translate(-33.409300, -46.993685) ">
                                            <use fill="#FFFFFF" fill-rule="evenodd" xlink:href="#path-7"></use>
                                            <use fill="black" fill-opacity="1" filter="url(#filter-8)" xlink:href="#path-7"></use>
                                        </g>
                                        <g id="矩形" transform="translate(30.342780, 28.223837) rotate(15.000000) translate(-30.342780, -28.223837) ">
                                            <use fill="#FFFFFF" fill-rule="evenodd" xlink:href="#path-9"></use>
                                            <use fill="black" fill-opacity="1" filter="url(#filter-10)" xlink:href="#path-9"></use>
                                        </g>
                                    </g>
                                    <g id="躯干" transform="translate(30.629081, 0.000000)">
                                        <g id="编组-6" transform="translate(26.440231, 73.879753)">
                                            <mask id="mask-13" fill="white">
                                                <use xlink:href="#path-12"></use>
                                            </mask>
                                            <use id="形状结合" fill="url(#linearGradient-11)" xlink:href="#path-12"></use>
                                            <path d="M-2.71220492,28.2494756 C4.8151443,31.5395751 12.2741536,33.1846249 19.664823,33.1846249 C27.0554923,33.1846249 34.4006016,31.5395751 41.7001507,28.2494756" id="路径-2" stroke="#5F280A" stroke-width="5.42440984" mask="url(#mask-13)"></path>
                                            <path d="M-2.71220492,16.3370461 C4.8151443,19.6271457 12.2741536,21.2721955 19.664823,21.2721955 C27.0554923,21.2721955 34.4006016,19.6271457 41.7001507,16.3370461" id="路径-2备份" stroke="#5F280A" stroke-width="5.42440984" mask="url(#mask-13)"></path>
                                            <path d="M-2.71220492,4.42461666 C4.8151443,7.71471622 12.2741536,9.35976601 19.664823,9.35976601 C27.0554923,9.35976601 34.4006016,7.71471622 41.7001507,4.42461666" id="路径-2备份-2" stroke="#5F280A" stroke-width="5.42440984" mask="url(#mask-13)"></path>
                                            <g id="形状结合" mask="url(#mask-13)" fill="black" fill-opacity="1">
                                                <use filter="url(#filter-15)" xlink:href="#path-14"></use>
                                            </g>
                                            <ellipse id="椭圆形" fill="#FAE623" opacity="0.6" filter="url(#filter-16)" mask="url(#mask-13)" cx="19.4939729" cy="20.7616628" rx="2.54269211" ry="18.719532"></ellipse>
                                            <path d="M13.5610246,47.3093627 L15.5845422,47.3093627 C17.0883258,47.3093627 18.3073832,48.5284202 18.3073832,50.0322037 L18.3073832,51.7451725 C18.3073832,52.3142272 18.7470718,52.7865742 19.314669,52.8272759 L20.6805625,52.9252223 L20.6805625,52.9252223 L20.6805625,35.8723376 C15.9342039,35.8723376 13.5610246,39.6846793 13.5610246,47.3093627 Z" id="矩形" fill="#000000" style="mix-blend-mode: soft-light;" filter="url(#filter-17)" mask="url(#mask-13)"></path>
                                            <path d="M18.3073832,47.3093627 L20.3309008,47.3093627 C21.8346844,47.3093627 23.0537418,48.5284202 23.0537418,50.0322037 L23.0537418,51.7451725 C23.0537418,52.3142272 23.4934304,52.7865742 24.0610276,52.8272759 L25.4269211,52.9252223 L25.4269211,52.9252223 L25.4269211,35.8723376 C20.6805625,35.8723376 18.3073832,39.6846793 18.3073832,47.3093627 Z" id="矩形" fill="#000000" style="mix-blend-mode: soft-light;" filter="url(#filter-18)" mask="url(#mask-13)" transform="translate(21.867152, 44.398780) scale(-1, 1) translate(-21.867152, -44.398780) "></path>
                                            <g id="编组-4" mask="url(#mask-13)">
                                                <g transform="translate(-4.065547, 13.216432)">
                                                    <mask id="mask-20" fill="white">
                                                        <use xlink:href="#path-19"></use>
                                                    </mask>
                                                    <use id="路径-2备份" stroke="none" fill="#5F280A" fill-rule="nonzero" xlink:href="#path-19"></use>
                                                    <rect id="矩形" stroke="none" fill="#B71C24" fill-rule="evenodd" mask="url(#mask-20)" x="20.3415369" y="4.42461666" width="6.78051231" height="7.14745768"></rect>
                                                    <g id="logo" stroke="none" stroke-width="1" fill="none" fill-rule="evenodd" mask="url(#mask-20)">
                                                        <g transform="translate(20.338776, 4.652212)" id="编组-7">
                                                            <g>
                                                                <rect id="矩形" fill="#FFFFFF" x="0" y="0" width="6.78051231" height="6.80710255" rx="0.271220492"></rect>
                                                                <path d="M6.29175038,6.02318669 L5.18762164,6.02318669 L5.18762164,1.65976305 L4.84683027,1.66756286 L4.84298091,1.55028215 L5.18762164,0.79373652 L5.64915558,0.79373652 C6.23916609,0.760480988 6.29369271,0.854326824 6.29369271,1.67539812 L6.29175038,6.02318669 Z M4.42234195,3.93922061 C4.5158212,4.12297693 4.56254316,4.34583863 4.56254316,4.61369102 C4.56254316,5.04179396 4.4418006,5.37612196 4.2003508,5.61851863 C3.93160237,5.89023547 3.53049269,6.02318669 2.99497347,6.02318669 L0.48487726,6.02318669 L0.48487726,5.68105888 C0.48487726,5.02030904 0.792578321,5.12978994 1.43905779,5.12978994 L2.54512886,5.12978994 C2.80413031,5.12978994 2.99885814,5.08674919 3.12934769,5.00073862 C3.28706523,4.89714303 3.36497049,4.72508642 3.36497049,4.48658965 C3.36497049,4.27936302 3.30458155,4.12297693 3.18775898,4.02133128 C3.05338476,3.90408603 2.83916295,3.84537477 2.54512886,3.84732473 L0.669893427,3.85515998 L0.669893427,3.3742311 C0.669893427,2.86791739 0.919147884,2.95977782 1.41571447,2.95587792 L2.52372787,2.95002807 C2.84502527,2.94807812 3.07090109,2.88745236 3.19747065,2.7623364 C3.29486988,2.66459066 3.34353419,2.51798978 3.34353419,2.32444825 C3.34353419,1.89630986 3.06895875,1.68319792 2.52178553,1.68319792 L0.48487726,1.68319792 L0.48487726,1.31962065 C0.48487726,0.676420362 0.827610968,0.789801164 1.45657411,0.789801164 L2.88786257,0.789801164 C3.53049269,0.789801164 3.98418665,0.934487547 4.25095743,1.22183945 C4.45935224,1.44668656 4.56254316,1.77314385 4.56254316,2.20128224 C4.56254316,2.3830886 4.53722219,2.53557479 4.48467322,2.6587408 C4.38338931,2.89528762 4.18089214,3.14551954 3.87707575,3.40748663 C4.13219252,3.56192277 4.31328871,3.73787928 4.42234195,3.93922061 L4.42234195,3.93922061 Z M0.271220492,0 L6.50929181,0 C6.65908275,-5.59680477e-16 6.78051231,0.121429551 6.78051231,0.271220492 L6.78051231,6.53588206 C6.78051231,6.685673 6.65908275,6.80710255 6.50929181,6.80710255 L0.271220492,6.80710255 C0.121429551,6.80710255 1.29366402e-16,6.685673 0,6.53588206 L0,0.271220492 C-1.83440997e-17,0.121429551 0.121429551,1.38538452e-16 0.271220492,0 Z" id="31" fill="#B71C24"></path>
                                                            </g>
                                                        </g>
                                                    </g>
                                                </g>
                                            </g>
                                        </g>
                                        <g id="头" transform="translate(52.190852, 45.607143) rotate(8.000000) translate(-52.190852, -45.607143) translate(5.315852, 6.705182)">
                                            <g id="编组-15">
                                                <g id="路径备份-5">
                                                    <use fill="url(#linearGradient-21)" fill-rule="evenodd" xlink:href="#path-22"></use>
                                                    <use fill="black" fill-opacity="1" filter="url(#filter-23)" xlink:href="#path-22"></use>
                                                </g>
                                                <g id="路径备份-6">
                                                    <use fill="#FFF6F2" fill-rule="evenodd" xlink:href="#path-24"></use>
                                                    <use fill="black" fill-opacity="1" filter="url(#filter-25)" xlink:href="#path-24"></use>
                                                </g>
                                                <g id="编组-2" transform="translate(16.902849, 38.899350)">
                                                    <g id="编组-10">
                                                        <g id="椭圆形备份-3" opacity="0.600771949">
                                                            <use fill="#F77333" xlink:href="#path-26"></use>
                                                            <use fill-opacity="0.296574519" fill="#FFFFFF" xlink:href="#path-26"></use>
                                                        </g>
                                                        <g id="椭圆形备份-5" opacity="0.600771949">
                                                            <use fill="#F77333" xlink:href="#path-27"></use>
                                                            <use fill-opacity="0.296574519" fill="#FFFFFF" xlink:href="#path-27"></use>
                                                        </g>
                                                        <g id="编组-17" transform="translate(38.680062, 0.116693)">
                                                            <g id="编组-18" transform="translate(0.000000, 0.582385)">
                                                                <ellipse id="椭圆形备份-8" fill="#5F280A" cx="6.78051231" cy="6.80710255" rx="6.78051231" ry="6.80710255"></ellipse>
                                                                <ellipse id="椭圆形备份-9" fill="#FFFFFF" cx="9.12761272" cy="4.45079782" rx="2.34710041" ry="2.35630473"></ellipse>
                                                                <ellipse id="椭圆形备份-10" fill="#FFFFFF" cx="4.97045455" cy="6.05832127" rx="1.36363636" ry="1.36898396"></ellipse>
                                                            </g>
                                                        </g>
                                                        <path d="M18.4817325,11.0685648 C15.4822134,8.6936424 11.6594776,7.7129154 7.01352515,8.12638385 C9.30770624,5.56692075 12.218412,4.00302417 15.7456425,3.43469411" id="路径-110" stroke="#5F280A" stroke-width="2.72727273" stroke-linecap="round" stroke-linejoin="round" transform="translate(12.747629, 7.251629) scale(-1, 1) translate(-12.747629, -7.251629) "></path>
                                                        <g id="编组-19" transform="translate(25.422616, 10.609626)">
                                                            <mask id="mask-29" fill="white">
                                                                <use xlink:href="#path-28"></use>
                                                            </mask>
                                                            <g id="路径-7" stroke-linecap="round" stroke-linejoin="round">
                                                                <use fill="#F77333" xlink:href="#path-28"></use>
                                                                <use stroke="#5F280A" stroke-width="1.45296692" fill-opacity="0.3" fill="#FFFFFF" xlink:href="#path-28"></use>
                                                            </g>
                                                            <mask id="mask-31" fill="white">
                                                                <use xlink:href="#path-30"></use>
                                                            </mask>
                                                            <g id="形状结合" stroke-linecap="round" stroke-linejoin="round" fill="#FFFFFF">
                                                                <use xlink:href="#path-30"></use>
                                                                <use stroke="#5F280A" stroke-width="1.45296692" fill-opacity="0.3" xlink:href="#path-30"></use>
                                                            </g>
                                                        </g>
                                                    </g>
                                                </g>
                                            </g>
                                            <ellipse id="椭圆形" fill="#000000" style="mix-blend-mode: soft-light;" filter="url(#filter-32)" cx="40.6830738" cy="10.2106538" rx="2.03415369" ry="2.04213076"></ellipse>
                                            <ellipse id="椭圆形备份-4" fill="#000000" style="mix-blend-mode: soft-light;" filter="url(#filter-33)" cx="52.5489704" cy="10.2106538" rx="2.03415369" ry="2.04213076"></ellipse>
                                            <g id="路径">
                                                <use fill="#5F280A" fill-rule="evenodd" xlink:href="#path-34"></use>
                                                <use fill="black" fill-opacity="1" filter="url(#filter-35)" xlink:href="#path-34"></use>
                                            </g>
                                            <g id="路径备份" transform="translate(65.406562, 5.929247) scale(-1, 1) translate(-65.406562, -5.929247) ">
                                                <use fill="#5F280A" fill-rule="evenodd" xlink:href="#path-36"></use>
                                                <use fill="black" fill-opacity="1" filter="url(#filter-37)" xlink:href="#path-36"></use>
                                            </g>
                                        </g>
                                    </g>
                                    <g id="右胳膊" transform="translate(79.636364, 83.462641)">
                                        <mask id="mask-40" fill="white">
                                            <use xlink:href="#path-39"></use>
                                        </mask>
                                        <g id="形状结合">
                                            <use fill="url(#linearGradient-38)" fill-rule="evenodd" xlink:href="#path-39"></use>
                                            <use fill="black" fill-opacity="1" filter="url(#filter-41)" xlink:href="#path-39"></use>
                                        </g>
                                        <path d="M-1.59926313,18.6665879 C5.91192085,20.1788998 12.2720233,20.0766572 17.4810442,18.35986 C22.6900651,16.6430628 26.9749361,9.78675473 30.3356571,-2.2090641 L30.3356571,26.1544007 L-1.59926313,26.2894499 L-1.59926313,18.6665879 Z" id="路径-116" fill="#000000" style="mix-blend-mode: soft-light;" filter="url(#filter-42)" mask="url(#mask-40)"></path>
                                    </g>
                                    <g id="左胳膊" transform="translate(32.986977, 68.804341) rotate(76.000000) translate(-32.986977, -68.804341) translate(3.611977, 42.451399)">
                                        <mask id="mask-45" fill="white">
                                            <use xlink:href="#path-44"></use>
                                        </mask>
                                        <g id="形状结合">
                                            <use fill="url(#linearGradient-43)" fill-rule="evenodd" xlink:href="#path-44"></use>
                                            <use fill="black" fill-opacity="1" filter="url(#filter-46)" xlink:href="#path-44"></use>
                                        </g>
                                        <path d="M60.9880856,-7.03746917 L62.7366307,-6.59979828 L44.7562059,65.7985527 L-5.41805364,53.2396466 L-2.23682903,40.4304155 C5.67447701,47.3163252 12.4130216,49.2796676 17.9788049,46.3204425 C26.3274797,41.8816048 35.6965623,37.073991 43.2338175,28.4964078 C48.2586543,22.778019 54.1767437,10.9333933 60.9880856,-7.03746917 L60.9880856,-7.03746917 Z M3.13956687,28.4670187 C-0.864121159,19.2928229 14.4761349,12.6078605 13.356803,17.114861 C12.8529436,19.1436557 13.4817585,21.6265294 15.2432478,24.563482 L15.3239464,24.6955308 L15.1811084,24.5170443 C13.9766703,23.0555277 12.6073069,22.2922952 11.0730181,22.2273469 L10.8416378,22.2228418 C8.67054388,22.229674 6.1031869,24.3110663 3.13956687,28.4670187 Z" id="形状结合" fill="#000000" style="mix-blend-mode: soft-light;" filter="url(#filter-47)" mask="url(#mask-45)"></path>
                                    </g>
                                </g>
                            </g>
                        </g>
                        <g id="编组" transform="translate(6.818182, 21.219251)">
                            <g id="形状结合">
                                <use fill="url(#linearGradient-48)" fill-rule="evenodd" xlink:href="#path-49"></use>
                                <use fill="black" fill-opacity="1" filter="url(#filter-50)" xlink:href="#path-49"></use>
                            </g>
                        </g>
                    </g>
                    <text id="hi" transform="translate(21.528034, 38.451714) rotate(-23.000000) translate(-21.528034, -38.451714) " font-family="HappyZcool-2016" font-size="19.6363636" font-weight="normal" fill="#FFFFFF">
                        <tspan x="14.5280338" y="45.4517136">hi</tspan>
                    </text>
                    <rect id="矩形" fill="url(#linearGradient-51)" fill-rule="evenodd" opacity="0.88625372" x="0" y="101.304813" width="150" height="26.6951872"></rect>
                </g>
            </g>
        </g>
    </g>
</svg>